<?xml version="1.0" encoding="iso-8859-1"?>
<!-- Generator: Adobe Illustrator 18.0.0, SVG Export Plug-In . SVG Version: 6.00 Build 0)  -->
<!DOCTYPE svg PUBLIC "-//W3C//DTD SVG 1.1//EN" "http://www.w3.org/Graphics/SVG/1.1/DTD/svg11.dtd">
<svg version="1.1" id="Capa_1" xmlns="http://www.w3.org/2000/svg" xmlns:xlink="http://www.w3.org/1999/xlink" x="0px" y="0px"
	 viewBox="0 0 479.94 479.94" style="enable-background:new 0 0 479.94 479.94;" xml:space="preserve">
<g>
	<path d="M131.552,244.497v14.787h26.477v-14.795c-4.38,0.83-8.797,1.299-13.239,1.299
		C140.333,245.787,135.93,245.318,131.552,244.497z"/>
	<path d="M195.093,374.796l3.583-0.961c0.882-4.958,2.211-9.868,3.979-14.678l-2.643-2.652c-4.779-4.777-7.413-11.135-7.413-17.89
		c0-6.757,2.634-13.114,7.413-17.892l15.6-15.602c4.777-4.777,11.135-7.412,17.892-7.412c6.755,0,13.113,2.634,17.892,7.412
		l2.65,2.652c4.801-1.768,9.704-3.097,14.669-3.973l0.955-3.557c2.471-9.236,9.993-15.844,19.04-17.861
		c0.141-2.619,0.399-5.2,0.399-7.851v-23.788c0-12.66-8.312-23.819-20.464-27.432l-48.826-14.567v0.008l-5.403-1.602
		c-3.504,4.378-7.18,8.374-10.964,12.065l13.912,4.145c-8.932,49.186-25.861,103.25-46.693,129.751l-12.565-84.029h-26.65
		l-12.567,83.999c-20.816-26.509-37.745-80.559-46.659-129.73l13.895-4.145c-3.8-3.683-7.459-7.687-10.97-12.065l-54.223,16.17
		c-12.152,3.613-20.464,14.771-20.464,27.432v23.788c0,79.706,64.607,144.312,144.32,144.312c0.016,0,0.016,0,0.016,0
		c11.995,0,23.585-1.626,34.728-4.386l-2.332-8.696C173.605,392.281,181.636,378.386,195.093,374.796z"/>
	<path d="M368.785,354.449c-1.11-4.145-4.872-6.882-8.976-6.882c-0.79,0-1.595,0.102-2.401,0.314l-8.335,2.236
		c-0.798,0.211-1.611,0.32-2.409,0.32c-2.933,0-5.764-1.4-7.53-3.855c-1.947-2.69-4.098-5.278-6.523-7.71
		c-2.212-2.205-4.55-4.207-6.982-6.029c-3.034-2.284-4.379-6.177-3.393-9.838l2.173-8.116c0.634-2.385,0.298-4.918-0.93-7.053
		c-1.235-2.135-3.261-3.691-5.645-4.324l-21.317-5.71c-0.806-0.211-1.61-0.312-2.401-0.312c-4.104,0-7.858,2.728-8.968,6.881
		l-2.104,7.835c-0.977,3.668-4.097,6.374-7.866,6.819c-6.529,0.782-12.95,2.534-19.096,5.169c-1.18,0.5-2.415,0.75-3.651,0.75
		c-2.416,0-4.801-0.945-6.576-2.721l-5.779-5.778c-1.814-1.815-4.191-2.721-6.568-2.721c-2.378,0-4.755,0.906-6.569,2.721
		l-15.6,15.6c-3.629,3.629-3.629,9.51,0,13.137l5.77,5.772c2.69,2.689,3.472,6.749,1.971,10.235
		c-2.636,6.155-4.386,12.575-5.177,19.104c-0.454,3.769-3.15,6.89-6.818,7.867l-7.836,2.104c-4.95,1.321-7.89,6.419-6.568,11.369
		l5.716,21.325c1.11,4.143,4.864,6.888,8.962,6.888c0.798,0,1.603-0.101,2.407-0.32l8.126-2.173
		c0.789-0.211,1.595-0.314,2.393-0.314c2.878,0,5.653,1.337,7.436,3.715c1.822,2.423,3.824,4.769,6.038,6.982
		c2.424,2.425,5.012,4.576,7.709,6.521c3.129,2.254,4.535,6.209,3.534,9.939l-2.235,8.329c-1.321,4.948,1.619,10.047,6.569,11.377
		l21.315,5.715c0.797,0.212,1.603,0.322,2.409,0.322c1.619,0,3.222-0.423,4.644-1.244c2.135-1.235,3.691-3.261,4.332-5.645
		l2.37-8.845c0.969-3.619,4.034-6.309,7.758-6.803c6.201-0.82,12.291-2.51,18.142-5.005c1.18-0.5,2.416-0.75,3.651-0.75
		c2.417,0,4.793,0.945,6.569,2.721l6.592,6.591c1.744,1.744,4.104,2.721,6.568,2.721c2.463,0,4.825-0.977,6.569-2.721l15.592-15.6
		c3.629-3.629,3.629-9.509,0-13.137l-6.592-6.592c-2.683-2.682-3.464-6.734-1.978-10.22c2.501-5.85,4.183-11.941,5.004-18.142
		c0.492-3.724,3.182-6.789,6.803-7.758l8.843-2.37c2.386-0.641,4.411-2.197,5.646-4.332c1.227-2.135,1.563-4.668,0.923-7.053
		L368.785,354.449z M308.496,413.606c-13.989,13.989-36.644,13.989-50.625,0.008c-13.982-13.982-13.99-36.651-0.008-50.634
		c13.981-13.981,36.644-13.973,50.632,0.016C322.468,376.971,322.468,399.631,308.496,413.606z"/>
	<path d="M479.247,288.662l-4.059-15.147c-0.453-1.696-1.564-3.136-3.081-4.012c-1.517-0.876-3.315-1.11-5.013-0.657l-5.927,1.587
		c-2.643,0.712-5.458-0.289-7.061-2.509c-1.385-1.915-2.918-3.762-4.638-5.482c-1.571-1.571-3.236-2.987-4.964-4.286
		c-2.159-1.625-3.113-4.395-2.417-6.998l1.549-5.77c0.453-1.689,0.218-3.496-0.658-5.013c-0.875-1.517-2.322-2.62-4.01-3.073
		l-15.155-4.058c-3.52-0.938-7.14,1.148-8.086,4.669l-1.494,5.566c-0.695,2.604-2.908,4.527-5.591,4.85
		c-4.645,0.562-9.204,1.798-13.576,3.675c-2.485,1.063-5.363,0.516-7.279-1.4l-4.106-4.106c-2.58-2.58-6.757-2.58-9.336,0
		l-11.089,11.088c-2.58,2.58-2.58,6.757,0,9.337l4.114,4.112c1.907,1.909,2.463,4.787,1.399,7.272
		c-1.877,4.372-3.129,8.93-3.683,13.576c-0.32,2.674-2.246,4.895-4.849,5.591l-5.567,1.494c-1.698,0.453-3.136,1.555-4.012,3.073
		c-0.876,1.517-1.11,3.315-0.665,5.012l4.066,15.153c0.445,1.698,1.557,3.136,3.073,4.012s3.315,1.111,5.013,0.657l5.762-1.539
		c2.604-0.697,5.373,0.258,6.992,2.407c1.297,1.73,2.721,3.395,4.292,4.966c1.727,1.728,3.574,3.253,5.49,4.638
		c2.221,1.609,3.222,4.417,2.509,7.069l-1.587,5.919c-0.453,1.696-0.218,3.496,0.657,5.013c0.876,1.517,2.315,2.626,4.012,3.082
		l15.146,4.058c1.698,0.453,3.496,0.22,5.013-0.656s2.628-2.316,3.082-4.012l1.681-6.288c0.689-2.572,2.87-4.481,5.512-4.834
		c4.411-0.594,8.743-1.782,12.896-3.564c2.479-1.056,5.365-0.501,7.272,1.408l4.684,4.684c2.58,2.58,6.757,2.58,9.337,0
		l11.089-11.088c2.58-2.582,2.58-6.757,0-9.337l-4.692-4.692c-1.908-1.907-2.463-4.785-1.4-7.264
		c1.774-4.161,2.971-8.484,3.559-12.895c0.351-2.643,2.26-4.825,4.839-5.512l6.28-1.682
		C478.097,295.81,480.185,292.189,479.247,288.662z M432.32,315.57c-9.938,9.938-26.04,9.938-35.979,0
		c-9.939-9.939-9.947-26.048-0.006-35.987c9.938-9.939,26.054-9.939,35.993,0.008C442.267,289.522,442.259,305.631,432.32,315.57z"
		/>
	<path d="M66.121,164.968c15.145,32.493,43.014,65.763,78.097,65.763c35.044,0,62.912-33.215,78.055-65.688
		c12.013-2.355,23.404-13.528,28.723-28.79c7.187-20.695,1.196-41.061-13.62-46.982C232.36,38.781,192.399,0,144.217,0
		C96.023,0,56.062,38.781,51.045,89.271c-7.336,2.953-12.861,9.755-15.267,18.826c-2.253,8.581-1.663,18.586,1.676,28.156
		C42.718,151.371,53.918,162.481,66.121,164.968z M194.074,34.301l0.742,7.262c0.688,6.894,2.598,13.598,5.648,19.817l17.947,36.698
		c-3.395,2.46-6.267,5.134-8.589,7.731v-0.021c0-2.033-1.663-3.682-3.683-3.682h-50.201c-2.033,0-3.682,1.649-3.682,3.682v7.668
		c-5.236-1.559-10.858-1.559-16.092,0.007v-7.675c0-2.033-1.649-3.682-3.684-3.682H82.283c-2.021,0-3.67,1.643-3.685,3.676
		c-2.308-2.591-5.18-5.256-8.562-7.704l17.947-36.698c3.051-6.219,4.962-12.923,5.648-19.817l0.756-7.289
		c13.633-12.072,30.865-19.541,49.829-19.541C163.169,14.732,180.428,22.215,194.074,34.301z M163.209,119.783
		c-1.099-1.106-2.321-2.04-3.6-2.905v-7.408h42.848v13.757c0,4.947-4.013,8.967-8.959,8.967h-24.914
		c-4.014,0-7.284-2.681-8.438-6.315c0.179,0.028,0.288,0.193,0.467,0.193c0.935,0,1.883-0.365,2.596-1.08
		C164.653,123.549,164.653,121.22,163.209,119.783z M125.24,124.991c0.838,0.832,1.937,1.032,3.037,0.908
		c-1.154,3.621-4.439,6.294-8.437,6.294H94.925c-4.948,0-8.96-4.02-8.96-8.967V109.47h42.834v7.435
		c-1.25,0.859-2.474,1.78-3.559,2.879C123.797,121.22,123.797,123.549,125.24,124.991z M50.029,111.854
		c0.728-2.734,2.57-7.558,6.857-9.041c0.454-0.16,1.361-0.255,1.814-0.296c0.03-0.003,0.059-0.006,0.089-0.01
		c2.818-0.324,5.648,0.458,7.9,2.182c6.236,4.772,10.477,10.815,11.909,13.067v5.471c0,9.007,7.326,16.332,16.327,16.332h24.915
		c9.014,0,16.326-7.325,16.326-16.332v-1.945c5.11-2.233,10.993-2.247,16.092-0.035v1.98c0,9.007,7.31,16.332,16.326,16.332h24.914
		c9,0,16.325-7.325,16.325-16.332v-5.429c1.43-2.229,5.713-8.365,12.028-13.175c2.593-1.975,5.942-2.696,9.117-1.957
		c0.282,0.066,0.49,0.117,0.582,0.148c6.514,2.267,10.401,14.579,5.537,28.597c-4.383,12.575-13.302,19.357-19.637,19.357
		c-3.518,0.205-5.689,1.689-6.884,4.424c-12.823,29.402-36.982,60.816-66.349,60.816c-29.381,0-53.54-31.414-66.36-60.816
		c-1.168-2.693-4.124-4.424-7.063-4.424c-6.156,0-15.062-6.781-19.431-19.357C49.012,124.67,48.531,117.539,50.029,111.854z"/>
</g>
<g>
</g>
<g>
</g>
<g>
</g>
<g>
</g>
<g>
</g>
<g>
</g>
<g>
</g>
<g>
</g>
<g>
</g>
<g>
</g>
<g>
</g>
<g>
</g>
<g>
</g>
<g>
</g>
<g>
</g>
</svg>
