<?xml version="1.0" encoding="iso-8859-1"?>
<!-- Generator: Adobe Illustrator 18.0.0, SVG Export Plug-In . SVG Version: 6.00 Build 0)  -->
<!DOCTYPE svg PUBLIC "-//W3C//DTD SVG 1.1//EN" "http://www.w3.org/Graphics/SVG/1.1/DTD/svg11.dtd">
<svg version="1.1" id="Capa_1" xmlns="http://www.w3.org/2000/svg" xmlns:xlink="http://www.w3.org/1999/xlink" x="0px" y="0px"
	 viewBox="0 0 478.198 478.198" style="enable-background:new 0 0 478.198 478.198;" xml:space="preserve">
<g>
	<path d="M380.91,254.336l-45.708-13.622l-39.989,75.107c-1.44,2.691-4.058,4.552-7.077,5.013c-3.019,0.461-6.076-0.524-8.251-2.667
		l-40.787-40.138l-40.787,40.138c-2.174,2.143-5.232,3.128-8.249,2.667c-3.019-0.461-5.639-2.322-7.077-5.013l-39.99-75.107
		l-45.706,13.622c-13.888,4.145-23.412,16.921-23.412,31.419v27.22c0,91.249,73.974,165.223,165.222,165.223
		c91.248,0,165.223-73.974,165.223-165.223v-27.22C404.322,271.257,394.796,258.48,380.91,254.336z"/>
	<path d="M150.15,187.744c17.242,37.072,49.013,75.091,88.957,75.091c39.918,0,71.668-37.964,88.91-75.021
		c13.66-2.565,26.642-15.28,32.702-32.656c7.5-21.543,2.308-42.593-11.566-51.086c0.05-2.352-0.759-5.512-4.542-6.154
		C337.307,42.281,292.726,0,239.107,0c-53.628,0-98.217,42.281-105.511,97.918c-3.121,0-5.542,3.516-4.552,6.186
		c-6.334,3.925-11.167,10.525-13.442,19.104c-2.572,9.728-1.899,21.074,1.893,31.951
		C123.492,172.377,136.286,185.015,150.15,187.744z M345.596,149.888c-5.075,14.545-15.445,22.389-22.818,22.389
		c-3.45,0.085-6.201,1.837-7.492,4.809c-14.702,33.71-42.438,69.735-76.179,69.735c-33.743,0-61.487-36.025-76.196-69.743
		c-1.273-2.918-4.496-4.801-7.686-4.801c-7.179,0-17.547-7.844-22.607-22.389c-2.713-7.78-3.275-16.006-1.533-22.583
		c0.845-3.206,3.027-8.86,8.102-10.619c0.523-0.188,1.399-0.282,2.173-0.36c1.807-0.172,3.387-0.993,4.63-2.158
		c8.39,5.2,14.287,13.27,16.335,16.39v20.152c0,3.315,2.69,6.005,6.006,6.005h57.381c3.316,0,6.005-2.69,6.005-6.005v-15.601
		c4.725-1.744,10.034-1.744,14.765,0v15.601c0,3.315,2.69,6.005,6.005,6.005h57.38c3.315,0,6.006-2.69,6.006-6.005v-20.152
		c2.049-3.12,7.945-11.19,16.335-16.39c1.245,1.165,2.823,1.986,4.63,2.158c0.773,0.078,1.649,0.172,2.182,0.36
		C346.667,119.352,351.249,133.639,345.596,149.888z M216.132,139.542c0.985,0.985,2.284,1.33,3.573,1.486v3.676h-45.37v-16.148
		c-0.008-0.149,0.024-0.29,0-0.446v-5.779h45.37v5.841c-1.227,0.899-2.471,1.783-3.573,2.878
		C213.786,133.396,213.786,137.197,216.132,139.542z M262.065,131.05c-1.095-1.095-2.346-1.986-3.574-2.885v-5.833h45.37v5.779
		c-0.022,0.156,0.008,0.297,0,0.446v16.148h-45.37v-3.684c1.283-0.156,2.588-0.493,3.574-1.478
		C264.41,137.197,264.41,133.396,262.065,131.05z M239.107,16.015c46.238,0,84.569,37.41,89.91,86.259
		c-5.653,2.964-10.524,6.819-14.309,10.689c-1.079-1.556-2.8-2.643-4.842-2.643h-57.38c-3.315,0-6.005,2.69-6.005,6.005v6.404
		c-4.856-1.071-9.907-1.064-14.765,0.008v-6.412c0-3.315-2.689-6.005-6.005-6.005H168.33c-2.04,0-3.76,1.087-4.84,2.643
		c-3.784-3.871-8.656-7.726-14.311-10.689C154.52,53.424,192.869,16.015,239.107,16.015z"/>
</g>
<g>
</g>
<g>
</g>
<g>
</g>
<g>
</g>
<g>
</g>
<g>
</g>
<g>
</g>
<g>
</g>
<g>
</g>
<g>
</g>
<g>
</g>
<g>
</g>
<g>
</g>
<g>
</g>
<g>
</g>
</svg>
