<?xml version="1.0" encoding="iso-8859-1"?>
<!-- Generator: Adobe Illustrator 18.0.0, SVG Export Plug-In . SVG Version: 6.00 Build 0)  -->
<!DOCTYPE svg PUBLIC "-//W3C//DTD SVG 1.1//EN" "http://www.w3.org/Graphics/SVG/1.1/DTD/svg11.dtd">
<svg version="1.1" id="Capa_1" xmlns="http://www.w3.org/2000/svg" xmlns:xlink="http://www.w3.org/1999/xlink" x="0px" y="0px"
	 viewBox="0 0 491.141 491.141" style="enable-background:new 0 0 491.141 491.141;" xml:space="preserve">
<path d="M381.103,295.203l-74.068-22.076c8.038-9.063,15.122-19.227,21.033-29.808c16.985,8.319,16.625,26.376,16.625,26.376
	c51.689-31.874,35.25-117.143,25.758-162.767C357.968,46.932,308.784,0,245.571,0c-62.073,0-111.27,45.171-124.381,103.635
	c-10.086,44.976-27.165,132.388,25.257,164.715c0,0-0.344-17.65,16.062-26.094c6.021,10.948,13.278,21.504,21.599,30.872
	l-74.067,22.076c-16.923,5.051-27.041,22.356-23.132,39.574l8.242,36.276c15.953,70.236,78.385,120.087,150.421,120.087
	c72.034,0,134.466-49.851,150.418-120.087l8.243-36.276C408.142,317.56,398.023,300.254,381.103,295.203z M110.774,367.503
	l-8.242-36.267c-2.049-8.97,3.269-18.057,12.073-20.683l27.542-8.211l-13.09,52.032c-0.532,2.165-0.157,4.457,1.063,6.326
	c1.22,1.869,3.157,3.143,5.348,3.518l43.369,7.453l-19.347,22.168c-2.425,2.785-2.628,6.865-0.501,9.884l46.216,65.366
	C158.632,455.029,122.051,417.197,110.774,367.503z M237.563,474.781c-3.128-0.171-6.241-0.461-9.322-0.844l-52.531-74.318
	l24.567-28.158c1.894-2.183,2.472-5.216,1.503-7.945c-0.971-2.728-3.331-4.723-6.179-5.208l-48.904-8.406l12.716-50.485
	l16.359,28.893c4.831,8.524,13.699,13.982,23.474,14.444c9.791,0.469,19.127-4.113,24.742-12.136l13.575-19.386V474.781z
	 M169.173,219.75c-1.267-2.925-4.489-4.81-7.68-4.81c-7.21,0-17.609-7.866-22.679-22.458c-5.129-14.709-2.386-31.038,6.492-33.328
	c40.941-10.561,99.514-16.751,147.776-82.255c0,0,25.352,56.545,43.634,76.046c2.893,3.089,3.371,3.016,8.992,6.233
	c5.621,3.217,7.289,7.444,8.148,10.666c1.736,6.592,1.19,14.842-1.532,22.638c-5.099,14.591-15.499,22.458-22.88,22.458h-0.017
	c-3.065,0.016-6.192,1.847-7.476,4.81c-14.748,33.789-42.555,69.901-76.382,69.901C211.727,289.651,183.92,253.539,169.173,219.75z
	 M253.578,474.781V311.186l13.607,19.432c5.599,8.023,14.935,12.605,24.725,12.136c9.79-0.461,18.643-5.919,23.46-14.444
	l16.344-28.878l12.714,50.469l-48.904,8.406c-2.846,0.485-5.208,2.48-6.177,5.208c-0.971,2.729-0.393,5.762,1.501,7.945
	l24.569,28.158l-52.533,74.318C259.802,474.32,256.706,474.61,253.578,474.781z M388.608,331.228l-8.241,36.275
	c-11.292,49.702-47.857,87.534-94.447,101.586l46.214-65.366c2.127-3.019,1.925-7.099-0.499-9.884l-19.347-22.168l43.368-7.453
	c2.19-0.375,4.129-1.649,5.35-3.518c1.218-1.869,1.594-4.16,1.063-6.326l-13.09-52.04l27.54,8.211
	C385.34,313.18,390.656,322.267,388.608,331.228z"/>
<g>
</g>
<g>
</g>
<g>
</g>
<g>
</g>
<g>
</g>
<g>
</g>
<g>
</g>
<g>
</g>
<g>
</g>
<g>
</g>
<g>
</g>
<g>
</g>
<g>
</g>
<g>
</g>
<g>
</g>
</svg>
