<?xml version="1.0" encoding="iso-8859-1"?>
<!-- Generator: Adobe Illustrator 18.0.0, SVG Export Plug-In . SVG Version: 6.00 Build 0)  -->
<!DOCTYPE svg PUBLIC "-//W3C//DTD SVG 1.1//EN" "http://www.w3.org/Graphics/SVG/1.1/DTD/svg11.dtd">
<svg version="1.1" id="Capa_1" xmlns="http://www.w3.org/2000/svg" xmlns:xlink="http://www.w3.org/1999/xlink" x="0px" y="0px"
	 viewBox="0 0 482.772 482.772" style="enable-background:new 0 0 482.772 482.772;" xml:space="preserve">
<g>
	<path d="M249.863,369.582c3.065-9.415,11.058-16.156,20.864-17.586l42.812-6.577l18.876-38.239
		c3.526-7.146,10.009-11.94,17.539-13.614v-21.863c0-13.778-9.039-25.899-22.231-29.841l-58.96-17.562
		c-3.808,4.77-7.788,9.125-11.894,13.121l15.092,4.503c-9.697,53.464-28.08,112.222-50.734,141.054l-13.669-91.358h-28.948
		l-13.669,91.294c-22.639-28.791-41.014-87.541-50.703-140.989l15.076-4.503c-4.114-3.996-8.086-8.352-11.91-13.121l-58.936,17.562
		c-13.201,3.941-22.24,16.063-22.24,29.841v25.845c0,86.641,70.213,156.854,156.855,156.854c0.016,0,0.016,0,0.016,0
		c34.517,0,66.318-11.276,92.218-30.161l-28.926-28.189C249.301,389.123,246.806,378.981,249.863,369.582z"/>
	<path d="M294.155,96.848C288.72,42.069,245.36,0,193.085,0C140.811,0,97.449,42.069,92.016,96.848
		c-7.969,3.198-13.951,10.579-16.563,20.423c-2.439,9.322-1.807,20.16,1.814,30.559c5.715,16.383,17.859,28.441,31.107,31.14
		c14.309,30.692,39.074,61.979,70.345,69.563v32.436h28.754v-32.436c31.238-7.601,56.004-38.825,70.298-69.477
		c13.02-2.558,25.392-14.677,31.169-31.226C316.73,125.381,310.239,103.274,294.155,96.848z M132.083,66.584
		c3.324-6.74,5.381-14.013,6.138-21.496l0.588-5.865c11.987,6.263,31.669,10.432,54.275,10.432c22.654,0,42.352-4.177,54.308-10.479
		l0.594,5.911c0.751,7.483,2.807,14.756,6.132,21.496l18.619,38.052c-3.613,2.596-6.727,5.395-9.29,8.148
		c-0.712-1.125-1.744-2.01-3.184-2.01H205.8c-2.197,0-3.989,1.791-3.989,3.996v2.4c-6.209-3.925-11.228-3.925-17.453,0.032v-2.433
		c0-2.205-1.79-3.996-3.979-3.996h-54.473c-1.415,0-2.471,0.868-3.167,1.994c-2.564-2.753-5.646-5.552-9.274-8.132L132.083,66.584z
		 M293.858,142.56c-4.785,13.654-14.458,21.005-21.317,21.005c-3.877,0.415-6.177,1.837-7.46,4.801
		c-13.911,31.889-40.13,65.975-71.996,65.975c-31.856,0-58.076-34.086-71.988-65.975c-1.259-2.918-4.473-4.801-7.663-4.801
		c-6.662,0-16.335-7.351-21.074-21.005c-2.55-7.318-3.082-15.052-1.456-21.214c0.799-2.962,2.647-8.754,7.438-9.806
		c12.891-2.831,23.295,19.89,23.569,20.45v1.695c0,9.768,7.937,17.736,17.704,17.736h27.031c9.76,0,17.712-7.969,17.712-17.736
		v-1.314c7.563-7.185,9.955-7.202,17.453-0.046v1.359c0,9.768,7.937,17.736,17.72,17.736h27.033c9.758,0,17.696-7.969,17.696-17.736
		v-2.36c3.382-4.821,16.141-22.083,23.583-19.785C294.982,113.743,299.12,127.358,293.858,142.56z"/>
	<path d="M443.573,384.596c2.683-2.612,3.645-6.513,2.487-10.064c-1.158-3.559-4.232-6.146-7.929-6.686l-42.204-6.13
		c-5.482-0.797-10.219-4.238-12.676-9.211l-18.869-38.23c-1.657-3.355-5.067-5.474-8.805-5.474c-3.738,0-7.147,2.119-8.805,5.474
		l-18.869,38.23c-2.455,4.974-7.194,8.414-12.676,9.211l-42.204,6.13c-3.698,0.54-6.771,3.128-7.929,6.686
		c-1.158,3.55-0.188,7.451,2.487,10.064l30.543,29.77c3.965,3.871,5.772,9.439,4.839,14.897l-7.216,42.03
		c-0.626,3.684,0.882,7.405,3.909,9.603c1.712,1.243,3.738,1.877,5.772,1.877c1.563,0,3.127-0.375,4.566-1.126l37.745-19.847
		c2.457-1.289,5.146-1.939,7.836-1.939c2.69,0,5.379,0.65,7.836,1.939l37.745,19.847c1.439,0.751,3.003,1.126,4.567,1.126
		c2.032,0,4.066-0.634,5.771-1.877c3.026-2.197,4.543-5.919,3.909-9.603l-7.21-42.03c-0.931-5.458,0.876-11.026,4.841-14.897
		L443.573,384.596z"/>
</g>
<g>
</g>
<g>
</g>
<g>
</g>
<g>
</g>
<g>
</g>
<g>
</g>
<g>
</g>
<g>
</g>
<g>
</g>
<g>
</g>
<g>
</g>
<g>
</g>
<g>
</g>
<g>
</g>
<g>
</g>
</svg>
