<?xml version="1.0" encoding="iso-8859-1"?>
<!-- Generator: Adobe Illustrator 18.0.0, SVG Export Plug-In . SVG Version: 6.00 Build 0)  -->
<!DOCTYPE svg PUBLIC "-//W3C//DTD SVG 1.1//EN" "http://www.w3.org/Graphics/SVG/1.1/DTD/svg11.dtd">
<svg version="1.1" id="Capa_1" xmlns="http://www.w3.org/2000/svg" xmlns:xlink="http://www.w3.org/1999/xlink" x="0px" y="0px"
	 viewBox="0 0 479.762 479.762" style="enable-background:new 0 0 479.762 479.762;" xml:space="preserve">
<g>
	<path d="M382.02,255.36l-56.052-16.711c0,0,0,0,0,0.008l-6.192-1.845c-4.021,5.035-8.228,9.627-12.56,13.856l15.937,4.755
		c-10.243,56.442-29.653,118.492-53.565,148.91l-14.436-96.439h-30.56l-14.436,96.393c-23.896-30.418-43.306-92.445-53.533-148.872
		l15.921-4.754c-4.348-4.222-8.539-8.821-12.575-13.856L97.742,255.36c-13.935,4.159-23.475,16.961-23.475,31.49v27.299
		c0,91.467,74.131,165.613,165.605,165.613c0.017,0,0.017,0,0.017,0c91.475,0,165.606-74.146,165.606-165.613V286.85
		C405.495,272.321,395.955,259.519,382.02,255.36z"/>
	<path d="M346.581,102.249C340.841,44.415,295.065,0,239.873,0c-55.191,0-100.968,44.415-106.707,102.249
		c-8.414,3.379-14.732,11.175-17.485,21.567c-2.58,9.83-1.907,21.285,1.909,32.257c6.035,17.304,18.86,30.036,32.842,32.881
		c15.107,32.404,41.257,65.427,74.271,73.442v17.281v16.969h30.355v-16.983v-17.275c32.984-8.014,59.133-40.981,74.225-73.348
		c13.748-2.698,26.806-15.491,32.906-32.968C370.416,132.363,363.565,109.038,346.581,102.249z M175.47,70.298
		c3.504-7.107,5.677-14.794,6.475-22.693l0.626-6.193c12.651,6.616,33.437,11.01,57.302,11.01c23.914,0,44.714-4.411,57.335-11.057
		l0.624,6.239c0.798,7.898,2.973,15.585,6.475,22.693l19.66,40.186c-3.816,2.729-7.101,5.686-9.806,8.602
		c-0.751-1.204-1.847-2.135-3.363-2.135h-57.506c-2.314,0-4.207,1.893-4.207,4.215v2.549c-6.553-4.152-11.854-4.152-18.423,0.031
		v-2.58c0-2.322-1.894-4.215-4.207-4.215h-57.506c-1.502,0-2.612,0.922-3.348,2.111c-2.704-2.908-5.959-5.856-9.789-8.578
		L175.47,70.298z M346.269,150.521c-5.053,14.404-15.266,22.169-22.506,22.169c-4.099,0.438-6.521,1.939-7.883,5.067
		c-14.685,33.671-42.367,69.658-76.008,69.658s-61.322-35.987-76.007-69.658c-1.329-3.082-4.724-5.067-8.086-5.067
		c-7.037,0-17.25-7.765-22.255-22.169c-2.689-7.726-3.252-15.89-1.532-22.395c0.844-3.136,2.937-8.719,7.851-10.37
		c0.079-0.027,0.223-0.068,0.409-0.115c1.349-0.337,2.77-0.154,3.991,0.509c9.674,5.26,17.751,16.662,20.482,20.818v2.176
		c0,10.315,8.383,18.713,18.689,18.713h28.542c10.307,0,18.705-8.398,18.705-18.713v-1.4c7.977-7.577,10.51-7.585,18.423-0.039
		v1.439c0,10.315,8.382,18.713,18.705,18.713h28.542c10.306,0,18.69-8.398,18.69-18.713v-2.351
		c2.997-4.458,11.075-15.567,20.251-20.519c1.335-0.721,2.882-0.93,4.362-0.593c0.113,0.026,0.211,0.051,0.284,0.074
		C347.363,120.36,351.82,134.468,346.269,150.521z"/>
</g>
<g>
</g>
<g>
</g>
<g>
</g>
<g>
</g>
<g>
</g>
<g>
</g>
<g>
</g>
<g>
</g>
<g>
</g>
<g>
</g>
<g>
</g>
<g>
</g>
<g>
</g>
<g>
</g>
<g>
</g>
</svg>
