<?xml version="1.0" encoding="iso-8859-1"?>
<!-- Generator: Adobe Illustrator 18.0.0, SVG Export Plug-In . SVG Version: 6.00 Build 0)  -->
<!DOCTYPE svg PUBLIC "-//W3C//DTD SVG 1.1//EN" "http://www.w3.org/Graphics/SVG/1.1/DTD/svg11.dtd">
<svg version="1.1" id="Capa_1" xmlns="http://www.w3.org/2000/svg" xmlns:xlink="http://www.w3.org/1999/xlink" x="0px" y="0px"
	 viewBox="0 0 480.411 480.411" style="enable-background:new 0 0 480.411 480.411;" xml:space="preserve">
<path d="M373.75,287.335l-13.325-3.973c0,0,0-0.016-0.015-0.022c-4.99-15.89-6.35-35.401-6.382-51.682
	c-0.016-13.262,0.844-24.264,1.345-29.534c0.72-1.229,3.708-7.092,5.037-10.768c2.093-5.788,3.128-11.596,3.378-17.116
	c0.469-10.557-2.252-20.043-7.475-26.87c1.5-8.092,2.583-22.05,2.767-28.509c0-0.002,0-0.006,0-0.008
	C359.079,53.205,305.844,0,240.19,0c-65.622,0-118.86,53.205-118.86,118.853v0.008c0,7.929,1.221,20.111,2.77,28.525
	c0,0,0,0,0,0.008c-1.924,2.51-3.442,5.419-4.63,8.585c-3.753,9.931-3.926,22.544,0.547,35.376c1.346,3.833,3.065,7.397,5.021,10.714
	c0.484,5.247,1.359,16.287,1.345,29.589c-0.032,16.289-1.392,35.814-6.396,51.704l-13.325,3.973
	c-16.672,4.973-26.648,22.028-22.786,38.996l8.116,35.737c15.76,69.286,77.687,118.124,147.84,118.32
	c0.047,0,0.093,0.006,0.155,0.006c0.064,0,0.142,0.017,0.22,0.017c0.016,0,0.03,0,0.047,0c0.11,0,0.219-0.023,0.328-0.023
	c76-0.212,115.029-53.95,116.264-54.567c14.906-18.469,25.789-38.311,31.576-63.753l8.116-35.737
	C400.4,309.363,390.422,292.308,373.75,287.335z M138.502,361.865c-4.27,12.847-9.822,24.358-16.015,34.39
	c-0.017,0.024-0.03,0.056-0.047,0.086c-6.615-11.566-11.729-24.21-14.826-37.824l-8.132-35.743
	c-1.972-8.712,3.189-17.533,11.761-20.089l33.436-9.971c0.017,0.008,0.017,0.024,0.017,0.024
	C148.761,311.225,147.041,336.075,138.502,361.865z M240.205,334.222c-30.903,0-56.583-22.129-62.214-51.399c0-0.014,0-0.03,0-0.03
	l14.718-4.395c0.014,0.008,0.03,0.015,0.03,0.03c9.993,8.352,21.003,14.827,33.063,17.658c4.66,1.094,9.461,1.68,14.388,1.68
	c17.688,0,33.641-7.764,47.512-19.368l0.017,0.008l14.702,4.379C296.805,312.068,271.125,334.222,240.205,334.222z M315.383,212.931
	c-14.512,33.272-41.897,68.82-75.193,68.82c-33.265,0-60.634-35.548-75.148-68.82c-1.267-2.918-4.473-4.801-7.662-4.801
	c-7.053,0-17.25-7.727-22.255-22.061c-5.568-15.975-1.132-30.217,6.443-32.662c1.089-0.352,4.482-0.62,7.179-2.87
	c17.887-14.92,46.605-78.315,46.605-78.315c47.559,64.553,100.855,75.034,141.094,80.712c0.638,0.09,1.959,0.316,2.412,0.474
	c7.523,2.627,12.012,16.688,6.429,32.67c-4.973,14.325-15.171,22.053-22.427,22.053
	C319.685,208.293,316.666,209.975,315.383,212.931z M380.912,322.782l-8.116,35.735c-3.097,13.614-8.211,26.258-14.826,37.824
	c-6.209-10.047-11.792-21.589-16.061-34.477c-8.555-25.813-10.259-50.672-6.178-69.15l33.436,9.971
	C377.739,305.241,382.899,314.063,380.912,322.782z"/>
<g>
</g>
<g>
</g>
<g>
</g>
<g>
</g>
<g>
</g>
<g>
</g>
<g>
</g>
<g>
</g>
<g>
</g>
<g>
</g>
<g>
</g>
<g>
</g>
<g>
</g>
<g>
</g>
<g>
</g>
</svg>
