<?xml version="1.0" encoding="iso-8859-1"?>
<!-- Generator: Adobe Illustrator 18.0.0, SVG Export Plug-In . SVG Version: 6.00 Build 0)  -->
<!DOCTYPE svg PUBLIC "-//W3C//DTD SVG 1.1//EN" "http://www.w3.org/Graphics/SVG/1.1/DTD/svg11.dtd">
<svg version="1.1" id="Capa_1" xmlns="http://www.w3.org/2000/svg" xmlns:xlink="http://www.w3.org/1999/xlink" x="0px" y="0px"
	 viewBox="0 0 480.286 480.286" style="enable-background:new 0 0 480.286 480.286;" xml:space="preserve">
<path d="M363.826,301.465L297,281.547c10.148-11.51,18.633-25.029,24.952-38.526c12.613-2.55,24.514-14.279,30.074-30.255
	c3.511-10.072,4.137-20.597,1.744-29.621c-2.478-9.357-8.118-16.419-15.592-19.645c1.479-6.855,2.431-14.57,2.431-21.839
	c0-36.502-19.525-68.36-48.646-85.954c0.844-3.237,1.376-6.569,1.376-10.025C293.339,20.448,269.52,0,240.143,0
	c-29.387,0-53.197,20.448-53.197,45.682c0,3.456,0.531,6.788,1.375,10.025c-29.119,17.594-48.646,49.452-48.646,85.954
	c0,10.381,1.607,17.951,2.462,21.825c-7.489,3.228-13.14,10.297-15.621,19.658c-2.395,9.024-1.768,19.549,1.742,29.621
	c5.514,15.835,17.251,27.502,30.043,30.184c6.318,13.52,14.818,27.063,24.985,38.591l-66.828,19.924
	c-15.451,4.606-24.679,20.401-21.113,36.12l7.522,33.109c14.561,64.098,71.543,109.592,137.275,109.592
	s122.715-45.495,137.274-109.592l7.524-33.109C388.505,321.866,379.28,306.071,363.826,301.465z M118.484,367.143l-7.522-33.101
	c-1.698-7.476,2.729-15.038,10.072-17.227l22.224-6.624l-11.347,45.104c-0.548,2.167-0.165,4.458,1.056,6.326
	c1.212,1.869,3.151,3.144,5.356,3.52l38.348,6.592l-16.828,19.291c-2.425,2.784-2.635,6.866-0.5,9.885l39.989,56.567
	C159.389,443.791,128.314,410.424,118.484,367.143z M222.838,462.988l-46.786-66.185l22.061-25.281
	c1.899-2.181,2.478-5.216,1.508-7.945c-0.97-2.729-3.339-4.715-6.193-5.208l-43.877-7.546l11.558-45.956l0.133-0.038l15.201,26.852
	c4.402,7.782,12.488,12.762,21.418,13.185c8.93,0.429,17.455-3.754,22.576-11.072l11.699-16.712l0.008,146.846
	C229.008,463.731,225.91,463.411,222.838,462.988z M171.079,232.331c-1.275-2.924-4.465-4.809-7.648-4.809
	c-6.342,0-15.521-7.014-20.049-20.026c-2.441-6.99-2.948-14.372-1.385-20.252c0.743-2.807,2.636-7.741,6.984-9.258
	c0.429-0.149,3.739-0.988,4.902-1.307c17.784-4.883,88.55-22.552,126.775-74.435c0,0,28.952,64.173,45.345,74.139
	c1.772,1.077,4.239,1.233,5.317,1.61c4.33,1.514,6.225,6.444,6.968,9.251c1.563,5.881,1.055,13.262-1.384,20.26
	c-4.529,13.004-13.708,20.018-20.207,20.018c0,0,0,0-0.006,0c-3.073,0.157-6.195,1.838-7.484,4.809
	c-13.356,30.638-38.52,63.371-69.064,63.371C209.598,295.701,184.434,262.968,171.079,232.331z M248.158,463.926l-0.008-146.846
	l11.697,16.712c5.123,7.318,13.646,11.501,22.576,11.072c8.93-0.423,17.016-5.403,21.418-13.185l13.582-23.998l10.854,43.141
	l-43.877,7.546c-2.854,0.493-5.223,2.479-6.193,5.208c-0.969,2.729-0.391,5.764,1.511,7.945l22.059,25.281l-47.027,66.53
	C252.567,463.582,250.37,463.793,248.158,463.926z M369.325,334.034l-7.523,33.109c-10.086,44.399-42.539,78.306-83.983,91.295
	l40.671-57.529c2.135-3.019,1.924-7.101-0.501-9.885l-16.828-19.291l38.349-6.592c2.205-0.376,4.144-1.651,5.355-3.52
	c1.22-1.867,1.603-4.159,1.055-6.326l-11.548-45.901l24.882,7.421C366.595,319.004,371.02,326.566,369.325,334.034z"/>
<g>
</g>
<g>
</g>
<g>
</g>
<g>
</g>
<g>
</g>
<g>
</g>
<g>
</g>
<g>
</g>
<g>
</g>
<g>
</g>
<g>
</g>
<g>
</g>
<g>
</g>
<g>
</g>
<g>
</g>
</svg>
