<?xml version="1.0" encoding="iso-8859-1"?>
<!-- Generator: Adobe Illustrator 18.0.0, SVG Export Plug-In . SVG Version: 6.00 Build 0)  -->
<!DOCTYPE svg PUBLIC "-//W3C//DTD SVG 1.1//EN" "http://www.w3.org/Graphics/SVG/1.1/DTD/svg11.dtd">
<svg version="1.1" id="Capa_1" xmlns="http://www.w3.org/2000/svg" xmlns:xlink="http://www.w3.org/1999/xlink" x="0px" y="0px"
	 viewBox="0 0 476.461 476.461" style="enable-background:new 0 0 476.461 476.461;" xml:space="preserve">
<g>
	<path d="M372.44,282.423l-67.094-20.002c24.906-2.175,58.444-0.046,78.612,1.704c1.314,0.11,2.533-0.703,2.932-1.962
		c0.398-1.252-0.117-2.62-1.259-3.292c-22.302-13.161-32.827-35.057-37.175-46.927c9.377,4.747,21.771,7.397,31.397,8.805
		c1.275,0.189,2.518-0.516,3.019-1.704c0.491-1.188,0.125-2.565-0.908-3.347c-11.675-8.837-18.149-22.786-21.738-34.234
		c2.509-9.399,2.854-18.923,0.641-27.259c-2.52-9.538-8.128-16.83-15.556-20.427c1.52-7.442,2.223-17.042,2.223-24.764
		C347.534,48.81,298.731,0,238.52,0c-52.878,0-96.94,37.651-106.895,87.604l-0.008-0.056c0,0-6.96,48.108-27.337,66.061
		c-0.563,0.501-0.688,1.331-0.298,1.971c0.383,0.649,1.18,0.922,1.885,0.649c3.088-1.189,6.858-3.003,10.908-5.208
		c-0.391,1.071-0.891,2.05-1.188,3.184c-2.206,8.335-1.869,17.868,0.648,27.267c-3.597,11.447-10.072,25.398-21.738,34.226
		c-1.031,0.782-1.4,2.159-0.906,3.347c0.499,1.188,1.744,1.893,3.019,1.704c9.625-1.408,22.02-4.058,31.395-8.805
		c-4.349,11.87-14.873,33.766-37.175,46.927c-1.142,0.672-1.658,2.04-1.259,3.292c0.399,1.259,1.619,2.072,2.932,1.962
		c20.167-1.75,53.705-3.879,78.612-1.704l-67.094,20.002c-16.764,4.997-26.782,22.137-22.911,39.193l8.163,35.923
		c15.797,69.557,77.627,118.922,148.958,118.922c71.331,0,133.163-49.366,148.958-118.922l8.164-35.923
		C399.221,304.56,389.206,287.42,372.44,282.423z M162.661,207.674c-1.275-2.924-4.489-4.809-7.671-4.809
		c-7.117,0-17.392-7.772-22.405-22.184c-2.689-7.711-3.245-15.866-1.517-22.38c0.837-3.174,2.995-8.759,8.031-10.509
		c0.477-0.173,1.309-0.243,2.119-0.353c1.731-0.234,3.997-1.61,3.997-1.609c0,0,29.448-16.313,55.972-39.585
		c17.189-15.068,34.267-34.571,44.081-57.999c0.195,0.016,0.398,0.016,0.594,0.032c-4.231,13.083-13.309,38.605-24.594,55.606
		c-2.346,3.535-4.777,6.717-7.287,9.321c0,0,6.951-3.44,16.194-9.673c13.207-8.899,31.137-23.537,40.56-42.375
		c0,0,7.288,38.762,53.721,59.242c0.157,0.07,0.29,0.141,0.438,0.211c0.157,0.079,0.298,0.165,0.455,0.242
		c1.446,6.116,2.361,12.466,2.673,19.003c0.197,3.963,3.262,7.194,7.21,7.585c0.821,0.078,1.651,0.179,2.159,0.36
		c4.997,1.742,7.155,7.327,7.999,10.501c1.72,6.515,1.166,14.67-1.525,22.389c-5.013,14.403-15.279,22.175-22.582,22.175h-0.008
		c-3.45-0.008-6.187,1.838-7.484,4.809c-14.585,33.438-42.093,69.174-75.562,69.174
		C204.755,276.849,177.244,241.112,162.661,207.674z M379.737,318.066l-8.165,35.924c-14.232,62.682-69.064,106.456-133.342,106.456
		S119.12,416.672,104.888,353.99l-8.163-35.917c-1.994-8.805,3.214-17.728,11.87-20.3l43.33-12.918l17.179,30.356
		c4.777,8.436,13.551,13.848,23.249,14.301c9.688,0.469,18.931-4.074,24.491-12.011l17.562-25.086
		c1.29,0.079,2.519,0.447,3.824,0.447c1.307,0,2.534-0.369,3.824-0.447l17.555,25.086c5.559,7.936,14.811,12.48,24.499,12.011
		c9.688-0.453,18.462-5.865,23.239-14.301l17.181-30.356l43.336,12.918C376.522,300.346,381.73,309.269,379.737,318.066z"/>
	<path d="M238.222,320.897c-6.084,0-11.01,4.926-11.01,11.01c0,6.082,4.926,11.01,11.01,11.01s11.011-4.928,11.011-11.01
		C249.233,325.823,244.306,320.897,238.222,320.897z"/>
	<path d="M238.222,368.941c-6.084,0-11.01,4.926-11.01,11.01c0,6.082,4.926,11.01,11.01,11.01s11.011-4.928,11.011-11.01
		C249.233,373.868,244.306,368.941,238.222,368.941z"/>
	<path d="M238.222,416.986c-6.084,0-11.01,4.926-11.01,11.01c0,6.082,4.926,11.01,11.01,11.01s11.011-4.928,11.011-11.01
		C249.233,421.912,244.306,416.986,238.222,416.986z"/>
</g>
<g>
</g>
<g>
</g>
<g>
</g>
<g>
</g>
<g>
</g>
<g>
</g>
<g>
</g>
<g>
</g>
<g>
</g>
<g>
</g>
<g>
</g>
<g>
</g>
<g>
</g>
<g>
</g>
<g>
</g>
</svg>
