<?xml version="1.0" encoding="iso-8859-1"?>
<!-- Generator: Adobe Illustrator 18.0.0, SVG Export Plug-In . SVG Version: 6.00 Build 0)  -->
<!DOCTYPE svg PUBLIC "-//W3C//DTD SVG 1.1//EN" "http://www.w3.org/Graphics/SVG/1.1/DTD/svg11.dtd">
<svg version="1.1" id="Capa_1" xmlns="http://www.w3.org/2000/svg" xmlns:xlink="http://www.w3.org/1999/xlink" x="0px" y="0px"
	 viewBox="0 0 484.704 484.704" style="enable-background:new 0 0 484.704 484.704;" xml:space="preserve">
<g>
	<path d="M195.683,335.371c-2.878-0.445-5.363-2.213-6.74-4.777l-38.035-71.458l-43.477,12.965
		c-13.231,3.941-22.286,16.094-22.286,29.887v25.915c0,84.116,66.107,152.609,149.199,156.8V302.512l-30.81,30.317
		C201.469,334.872,198.545,335.809,195.683,335.371z"/>
	<path d="M377.273,272.102l-43.478-12.965l-38.035,71.458c-1.376,2.564-3.862,4.332-6.74,4.777
		c-2.862,0.438-5.786-0.499-7.851-2.542l-30.809-30.317v182.192c83.092-4.191,149.199-72.685,149.199-156.8v-25.915
		C399.559,288.195,390.504,276.043,377.273,272.102z"/>
	<path d="M348.083,129.323c0.215-0.61,0.338-1.264,0.338-1.948c0-3.241-2.628-5.868-5.868-5.868c-0.238,0-0.471,0.018-0.701,0.046
		l0.607-3.069l1.314-6.701c5.129-26.071-2.064-53.158-19.471-73.224C305.096,16.421,277.822,0,253.69,0h-22.709
		c-24.131,0-51.405,16.421-70.611,38.559c-17.438,20.089-24.616,47.114-19.471,73.224l1.345,6.78l0.583,2.987
		c-0.223-0.026-0.447-0.042-0.676-0.042c-3.24,0-5.868,2.628-5.868,5.868c0,0.687,0.124,1.343,0.341,1.956
		c-5.719,3.842-10.09,9.997-12.177,17.898c-2.457,9.329-1.814,20.206,1.814,30.614c5.724,16.444,17.905,28.525,31.184,31.232
		c5.192,11.135,11.902,22.224,19.644,32.358c16.859,22.043,39.161,39.137,65.264,39.137c26.133,0,48.435-17.086,65.277-39.129
		c7.742-10.12,14.436-21.192,19.613-32.303c13.043-2.574,25.414-14.717,31.2-31.294
		C365.459,157.608,360.803,137.809,348.083,129.323z M186.862,69.916c4.395-8.141,14.232-11.088,22.068-6.584
		c20.816,11.956,45.995,11.956,66.797,0.007c7.834-4.504,17.688-1.564,22.082,6.592c0,0,30.605,55.34,31.764,56.356
		c-0.814,0.383-1.518,0.868-2.299,1.29c-7.569,4.082-13.561,9.83-17.439,14.584c-4.096-4.504-9.946-7.39-16.498-7.39h-21.896
		c-8.742,0-16.25,5.083-19.925,12.402c-5.958-1.744-12.354-1.744-18.329,0.008c-3.676-7.327-11.182-12.41-19.925-12.41h-21.895
		c-6.554,0-12.402,2.886-16.5,7.39c-3.863-4.762-9.869-10.494-17.438-14.584c-0.782-0.422-1.501-0.922-2.331-1.306
		C156.273,125.248,186.862,69.916,186.862,69.916z M264.418,154.579c-0.703-0.695-1.516-1.219-2.268-1.829
		c1.657-3.504,5.162-5.967,9.29-5.967h21.896c5.708,0,10.354,4.645,10.354,10.353c0,5.71-4.646,10.354-10.354,10.354h-21.896
		c-3.097,0-5.752-1.463-7.645-3.634C266.091,161.49,266.743,156.904,264.418,154.579z M220.991,163.752
		c-1.885,2.227-4.58,3.738-7.729,3.738h-21.895c-5.71,0-10.354-4.644-10.354-10.354c0-5.708,4.644-10.353,10.354-10.353h21.895
		c4.129,0,7.632,2.471,9.305,5.975c-0.751,0.61-1.578,1.126-2.268,1.821C217.999,156.881,218.749,161.368,220.991,163.752z
		 M343.32,172.581c-4.771,13.669-14.468,21.042-21.333,21.042c-3.269,0.369-6.193,1.847-7.476,4.81
		c-13.935,31.967-40.208,66.123-72.159,66.123c-31.904,0-58.194-34.156-72.145-66.123c-1.268-2.917-4.489-4.801-7.68-4.801
		c-6.694,0-16.389-7.374-21.145-21.05c-2.549-7.335-3.081-15.084-1.454-21.263c0.798-2.979,2.8-8.218,7.46-9.837
		c0.485-0.172,1.486-0.274,2.032-0.329c1.722-0.172,3.206-0.954,4.41-2.025c8.056,5.075,13.655,12.917,15.405,15.646
		c-0.077,0.792-0.234,1.557-0.234,2.362c0,12.332,10.025,22.365,22.365,22.365h21.895c11.729,0,21.254-9.095,22.192-20.583
		c4.427-1.633,9.383-1.625,13.793,0c0.939,11.488,10.464,20.583,22.193,20.583h21.896c12.34,0,22.365-10.033,22.365-22.365
		c0-0.814-0.157-1.579-0.236-2.362c1.769-2.721,7.414-10.548,15.421-15.631c1.221,1.072,2.722,1.854,4.44,2.018
		c0.752,0.078,1.519,0.164,1.972,0.321C344.383,143.953,348.605,157.34,343.32,172.581z"/>
</g>
<g>
</g>
<g>
</g>
<g>
</g>
<g>
</g>
<g>
</g>
<g>
</g>
<g>
</g>
<g>
</g>
<g>
</g>
<g>
</g>
<g>
</g>
<g>
</g>
<g>
</g>
<g>
</g>
<g>
</g>
</svg>
