<?xml version="1.0" encoding="iso-8859-1"?>
<!-- Generator: Adobe Illustrator 18.0.0, SVG Export Plug-In . SVG Version: 6.00 Build 0)  -->
<!DOCTYPE svg PUBLIC "-//W3C//DTD SVG 1.1//EN" "http://www.w3.org/Graphics/SVG/1.1/DTD/svg11.dtd">
<svg version="1.1" id="Capa_1" xmlns="http://www.w3.org/2000/svg" xmlns:xlink="http://www.w3.org/1999/xlink" x="0px" y="0px"
	 viewBox="0 0 487.027 487.027" style="enable-background:new 0 0 487.027 487.027;" xml:space="preserve">
<g>
	<path d="M381.82,268.685l-69.877-20.832c-18.57,22.091-41.975,37.324-68.429,37.324s-49.859-15.233-68.431-37.324l-69.876,20.832
		c-13.551,4.043-22.841,16.5-22.841,30.646v26.547c0,88.996,72.153,161.148,161.148,161.148s161.148-72.153,161.148-161.148v-26.547
		C404.662,285.185,395.372,272.728,381.82,268.685z"/>
	<path d="M140.379,184.076c6.209,7.82,14.115,12.527,21.669,12.386c17.054,39.115,47.122,72.701,81.465,72.701
		c34.344,0,64.411-33.586,81.465-72.701c7.554,0.141,15.459-4.565,21.668-12.386c3.285-4.128,6.132-9.032,8.102-14.693
		c3.691-10.595,3.635-21.097,0.727-29.159c-2.284-6.318-6.288-11.174-11.902-13.145c-0.915,0.297-1.829,0.625-2.822,0.704
		c-0.306,0.023-0.61,0.031-0.916,0.031c-1.821,0-3.51-0.555-5.098-1.321c-3.019-1.462-5.474-4.027-6.475-7.39
		c-0.242-0.805-6.358-19.807-42.484-19.807c-3.472,0-7.147,0.18-11.018,0.532c0,0-3.778,0.336-9.602,0.336
		c-19.269,0-45.222-3.331-59.431-19.174c-3.003-3.354-5.317-7.108-6.92-11.198c-13.356,8.484-32.562,24.515-39.951,49.702
		c-0.938,3.183-3.16,5.583-5.913,7.061c-1.712,0.923-3.581,1.564-5.606,1.564c-0.469,0-0.938-0.023-1.415-0.086
		c-0.97-0.117-1.838-0.493-2.721-0.829c-5.474,2.033-9.399,6.795-11.651,13.02c-2.909,8.062-2.964,18.564,0.727,29.159
		C134.249,175.043,137.095,179.947,140.379,184.076z"/>
	<path d="M208.348,51.157c-3.651,33.343,38.254,36.995,56.811,36.995c5.208,0,8.578-0.289,8.578-0.289
		c4.277-0.399,8.289-0.579,12.043-0.579c46.987,0,54.072,28.675,54.072,28.675l2.91-21.59c6.123-45.378-25.446-87.221-70.753-93.798
		C269.366,0.188,266.714,0,264.079,0c-15.139,0-29.746,6.225-40.256,17.438l-0.798,0.853c-6.952-3.175-14.373-4.739-21.762-4.739
		c-10.634,0-21.199,3.237-30.185,9.571c-17.101,12.05-26.821,32.029-25.765,52.916l2.017,40.068
		C160.992,69.564,208.348,51.157,208.348,51.157z"/>
</g>
<g>
</g>
<g>
</g>
<g>
</g>
<g>
</g>
<g>
</g>
<g>
</g>
<g>
</g>
<g>
</g>
<g>
</g>
<g>
</g>
<g>
</g>
<g>
</g>
<g>
</g>
<g>
</g>
<g>
</g>
</svg>
