<?xml version="1.0" encoding="iso-8859-1"?>
<!-- Generator: Adobe Illustrator 18.0.0, SVG Export Plug-In . SVG Version: 6.00 Build 0)  -->
<!DOCTYPE svg PUBLIC "-//W3C//DTD SVG 1.1//EN" "http://www.w3.org/Graphics/SVG/1.1/DTD/svg11.dtd">
<svg version="1.1" id="Capa_1" xmlns="http://www.w3.org/2000/svg" xmlns:xlink="http://www.w3.org/1999/xlink" x="0px" y="0px"
	 viewBox="0 0 486.323 486.323" style="enable-background:new 0 0 486.323 486.323;" xml:space="preserve">
<g>
	<path d="M378.083,273.314l-58.976-17.585l-70.565,102.587c-2.347,3.549-8.195,3.557-10.541-0.008l-70.597-102.634l-59.163,17.64
		c-13.232,3.941-22.286,16.094-22.286,29.887v25.914c0,86.823,70.377,157.208,157.207,157.208
		c86.829,0,157.207-70.385,157.207-157.208v-25.914C400.369,289.408,391.313,277.255,378.083,273.314z M118.155,365.048
		c-1.345,6.622-3.018,13.074-4.879,19.368c-7.272-16.992-11.307-35.681-11.307-55.301v-25.914c0-6.763,4.362-12.605,10.853-14.537
		l5.693-1.696C123.865,308.753,123.99,336.459,118.155,365.048z M243.162,470.309c-50.36,0-94.525-26.586-119.532-66.381
		c4.223-11.276,7.68-23.24,10.229-35.681c6.334-31.123,6.052-61.636-0.017-85.846l29.605-8.835l-0.125,0.085l61.292,93.438
		c4.128,6.31,11.103,10.08,18.656,10.08c7.555,0,14.529-3.77,18.658-10.072l61.275-93.43l29.479,8.789
		c-6.052,24.203-6.333,54.692,0,85.799c2.534,12.354,5.976,24.232,10.15,35.438C337.858,443.612,293.615,470.309,243.162,470.309z
		 M384.354,329.116c0,19.519-3.988,38.114-11.184,55.035c-1.828-6.209-3.455-12.573-4.785-19.095
		c-5.834-28.573-5.707-56.255-0.374-78.033l5.504,1.642c6.476,1.931,10.839,7.773,10.839,14.537V329.116z"/>
	<path d="M344.913,128.122c0.785-6.85,0.613-17.655,0.672-23.666c5.925,3.357,14.637,3.144,14.637,3.144
		c-9.969-8.041-21.631-64.559-35.938-80.754c15.326-3.323,26.431-11.831,26.431-11.831c-16.8,0.933-45.739-6.546-49.574-7.562
		C292.042,2.798,281.871,0,271.046,0h-54.692c-22.941,0-43.663,11.53-55.205,29.84c-9.651,15.311-27.448,46.051-40.148,60.243
		c0,0,6.881-0.86,15.531-3.543c2.548-0.797,5.222-1.728,7.959-2.87c-2.979,17.692-2.971,37.26-2.711,44.385
		c-7.878,3.254-13.81,10.607-16.399,20.386c-2.455,9.329-1.814,20.206,1.814,30.614c5.724,16.438,17.906,28.519,31.168,31.224
		c16.47,35.33,46.763,71.502,84.906,71.502c38.114,0,68.408-36.118,84.876-71.424c13.058-2.558,25.445-14.71,31.232-31.303
		C367.125,156.723,360.765,134.745,344.913,128.122z M344.254,173.794c-4.771,13.669-14.466,21.042-21.348,21.042
		c-3.926,0.244-6.194,1.847-7.491,4.81c-13.935,31.967-40.21,66.123-72.146,66.123c-31.935,0-58.21-34.156-72.145-66.123
		c-1.267-2.925-4.487-4.81-7.679-4.81c-6.692,0-16.374-7.373-21.128-21.042c-2.55-7.335-3.082-15.084-1.454-21.263
		c0.797-2.979,2.799-8.217,7.459-9.836c0.5-0.173,1.487-0.274,1.97-0.32c3.957-0.384,7.039-3.613,7.227-7.586
		c0.219-4.527,0.643-8.95,1.83-13.184c12.581-44.839,52.048-48.061,52.048-48.061c-2.214,8.212-19.315,24.687-19.315,24.687
		c39.364-16.015,51.627-33.367,51.627-33.367c26.461,36.729,63.025,52.479,83.764,58.82c0.594,3.676,1.361,7.289,1.549,11.104
		c0.186,3.973,3.268,7.202,7.226,7.586c0.483,0.046,1.47,0.148,1.986,0.32C345.319,145.165,349.54,158.552,344.254,173.794z"/>
	<path d="M202.138,231.69c3.958,0.681,7.82-1.579,9.165-5.357l1.517-4.276c3.38-9.493,12.355-15.835,22.443-15.835h15.89
		c10.072,0,19.048,6.342,22.428,15.835l2.408,6.771c1.219,3.425,4.66,5.528,8.257,5.043c3.613-0.483,6.38-3.424,6.646-7.045
		c0.078-1.071,0.126-2.159,0.126-3.253c0-25.337-21.426-45.887-47.872-45.887c-26.415,0-47.841,20.55-47.841,45.887
		C195.305,227.585,198.199,231.01,202.138,231.69z"/>
</g>
<g>
</g>
<g>
</g>
<g>
</g>
<g>
</g>
<g>
</g>
<g>
</g>
<g>
</g>
<g>
</g>
<g>
</g>
<g>
</g>
<g>
</g>
<g>
</g>
<g>
</g>
<g>
</g>
<g>
</g>
</svg>
