<?xml version="1.0" encoding="iso-8859-1"?>
<!-- Generator: Adobe Illustrator 18.0.0, SVG Export Plug-In . SVG Version: 6.00 Build 0)  -->
<!DOCTYPE svg PUBLIC "-//W3C//DTD SVG 1.1//EN" "http://www.w3.org/Graphics/SVG/1.1/DTD/svg11.dtd">
<svg version="1.1" id="Capa_1" xmlns="http://www.w3.org/2000/svg" xmlns:xlink="http://www.w3.org/1999/xlink" x="0px" y="0px"
	 viewBox="0 0 481.624 481.624" style="enable-background:new 0 0 481.624 481.624;" xml:space="preserve">
<g>
	<path d="M368.563,296.929l-61.308-18.274c-18.031,21.45-40.756,36.252-66.443,36.252s-48.411-14.802-66.443-36.252l-61.306,18.274
		c-15.953,4.763-25.486,21.075-21.794,37.308l7.766,34.196c15.029,66.202,73.88,113.19,141.778,113.19
		c67.891,0,126.75-46.989,141.778-113.19l7.766-34.196C394.047,318.004,384.516,301.692,368.563,296.929z"/>
	<g>
		<path d="M348.158,174.724c-2.183-6.326-5.858-12.321-11.699-13.137c-1.266-0.177-2.794,0.258-3.762,0.258
			c-1.462,0-4.824-1.815-5.692-2.463c-19.36-14.629-52.023-24.44-86.837-24.44s-67.437,9.811-86.797,24.44
			c-0.868,0.648-4.23,2.463-5.692,2.463c-0.967,0-2.496-0.435-3.762-0.258c-5.841,0.816-9.516,6.811-11.699,13.137
			c-2.689,7.764-2.681,17.767,0.837,27.869c1.853,5.325,4.511,9.963,7.569,13.896c6.054,7.772,13.841,12.472,21.271,12.331
			c16.353,37.505,45.44,70.246,78.292,70.246c32.853,0,61.94-32.741,78.293-70.246c7.429,0.141,15.217-4.559,21.27-12.331
			c3.058-3.933,5.716-8.571,7.569-13.896C350.838,192.491,350.847,182.488,348.158,174.724z"/>
	</g>
	<path d="M174.759,134.992l3.98-35.384l6.781,31.897c16.405-4.738,35.227-7.468,55.292-7.468c10.666,0,20.941,0.821,30.732,2.252
		l9.524-46.754l3.651,49.123c20.534,4.473,38.113,11.901,50.618,21.347c1.484-6.717,2.314-13.668,2.314-20.839
		c0-34.102-17.658-64.036-44.307-81.286c0.093-1.079,0.375-2.095,0.375-3.19c0-3.934-0.782-7.695-1.899-11.339
		C285.948,14.201,265.827,0,241.672,0c-23.716,0-43.509,13.708-49.772,32.342c-1.337,3.949-2.268,8.039-2.268,12.348
		c0,0.758,0.211,1.462,0.258,2.205c-27.533,17.086-45.926,47.489-45.926,82.271c0,7.171,0.838,14.122,2.324,20.839
		C154.014,144.164,163.67,139.082,174.759,134.992z"/>
</g>
<g>
</g>
<g>
</g>
<g>
</g>
<g>
</g>
<g>
</g>
<g>
</g>
<g>
</g>
<g>
</g>
<g>
</g>
<g>
</g>
<g>
</g>
<g>
</g>
<g>
</g>
<g>
</g>
<g>
</g>
</svg>
