<?xml version="1.0" encoding="iso-8859-1"?>
<!-- Generator: Adobe Illustrator 18.0.0, SVG Export Plug-In . SVG Version: 6.00 Build 0)  -->
<!DOCTYPE svg PUBLIC "-//W3C//DTD SVG 1.1//EN" "http://www.w3.org/Graphics/SVG/1.1/DTD/svg11.dtd">
<svg version="1.1" id="Capa_1" xmlns="http://www.w3.org/2000/svg" xmlns:xlink="http://www.w3.org/1999/xlink" x="0px" y="0px"
	 viewBox="0 0 480.443 480.443" style="enable-background:new 0 0 480.443 480.443;" xml:space="preserve">
<path d="M402.563,207.362v-45.025C402.563,72.826,329.738,0,240.225,0C150.706,0,77.872,72.826,77.872,162.337v45.025
	c-15.505,10.432-25.718,28.12-25.718,48.209c0,32.06,25.992,58.054,58.054,58.054c1.915,0,3.612-0.673,5.153-1.587
	c5.488,4.104,11.502,6.89,17.672,7.975c20.706,44.878,59.039,91.108,107.2,91.108c48.107,0,86.424-46.183,107.147-91.021
	c6.153-1.033,12.213-3.824,17.765-8.023c1.525,0.9,3.198,1.549,5.091,1.549c5.316,0,10.369-0.947,15.256-2.284v50.531
	c0,46.214-37.597,83.819-83.82,83.819h-2.971c-3.526-10.385-13.239-17.9-24.811-17.9h-52.712c-14.537,0-26.33,11.792-26.33,26.328
	c0,14.538,11.793,26.322,26.33,26.322h52.712c11.572,0,21.285-7.515,24.811-17.892h2.971c55.514,0,100.681-45.167,100.681-100.678
	v-57.975c15.624-10.4,25.937-28.151,25.937-48.326C428.289,235.482,418.077,217.786,402.563,207.362z M240.233,185.663
	c42.022,0,80.269,8.358,109.163,22.028c0.564,3.104,1.041,6.239,1.385,9.422c-9.04,3.989-15.406,10.526-19.503,16.484
	c-7.655-6.725-21.23-9.492-31.505-11.518c-2.948-0.578-5.732-1.125-8.172-1.712c-14.263-3.409-28.775,3.128-36.424,14.825
	c-9.563-3.863-20.339-3.863-29.903,0c-7.639-11.705-22.137-18.25-36.432-14.825c-2.438,0.587-5.223,1.134-8.171,1.712
	c-10.267,2.026-23.835,4.794-31.505,11.51c-4.098-5.965-10.455-12.495-19.503-16.484c0.344-3.182,0.822-6.309,1.385-9.413
	C159.948,194.022,198.194,185.663,240.233,185.663z M262.654,254.22c1.994,0.41,4.046,0.191,5.591-1.354
	c2.471-2.471,2.471-6.475,0-8.939c-0.79-0.796-1.696-1.381-2.543-2.08c0.014-0.022,0.025-0.048,0.039-0.069
	c3.847-5.935,10.486-9.713,17.892-9.713c1.682,0,3.37,0.203,5.021,0.602c2.588,0.618,5.55,1.196,8.68,1.814
	c11.165,2.197,28.048,5.528,27.196,12.301c-2.902,22.967-35.197,30.058-45.855,27.494
	C269.151,271.987,263.016,263.561,262.654,254.22z M212.098,252.867c1.571,1.571,3.667,1.774,5.693,1.335
	c-0.352,9.352-6.483,17.783-16.009,20.075c-1.47,0.351-3.331,0.531-5.379,0.531c-14.897,0-38.065-8.907-40.49-28.034
	c-0.853-6.765,16.03-10.096,27.196-12.293c3.127-0.618,6.092-1.196,8.68-1.814c1.65-0.399,3.339-0.602,5.021-0.602
	c7.413,0,14.059,3.778,17.908,9.721c-0.868,0.728-1.807,1.321-2.62,2.142C209.627,246.392,209.627,250.395,212.098,252.867z
	 M102.865,192.904c0,1.807,0.234,3.543,0.304,5.317c-2.884,0.36-5.692,0.884-8.437,1.651v-37.535
	c0-63.074,40.428-116.756,96.675-136.876c-13.411,11.042-21.849,26.509-21.849,43.736c0,1.955,0.461,3.792,0.665,5.693
	C129.936,98.826,102.865,142.646,102.865,192.904z M359.977,293.927c-5.528,5.99-11.981,9.751-18.087,9.751
	c-3.941-0.07-6.529,1.939-7.891,5.059c-18.033,41.343-52.134,85.525-93.766,85.525c-41.656,0-75.756-44.182-93.781-85.525
	c-1.345-3.082-4.794-5.059-8.14-5.059c-5.96,0-12.348-3.754-17.846-9.72v-60.735c0.304-0.04,0.563-0.109,0.86-0.149
	c2.392-0.233,4.372-1.517,5.747-3.307c11.019,6.141,16.092,18.731,16.737,20.419c4.539,25.631,33.109,37.266,52.593,37.266
	c3.073,0,5.872-0.296,8.335-0.884c17.775-4.276,28.823-21.894,25.335-39.66c6.491-2.612,13.803-2.612,20.292-0.008
	c-3.486,17.775,7.57,35.385,25.359,39.668c2.449,0.588,5.248,0.884,8.321,0.884c19.539,0,48.243-11.707,52.635-37.506
	c1.021-2.504,6.238-14.268,16.703-20.148c1.383,1.776,3.369,3.051,5.738,3.276c0.369,0.04,0.533,0.109,0.854,0.149V293.927z
	 M385.703,199.864c-2.745-0.759-5.544-1.282-8.429-1.643c0.069-1.774,0.305-3.511,0.305-5.317c0-50.257-27.072-94.07-67.352-118.014
	c0.203-1.901,0.665-3.738,0.665-5.693c0-17.228-8.437-32.687-21.847-43.729c56.23,20.137,96.658,73.802,96.658,136.869V199.864z"/>
<g>
</g>
<g>
</g>
<g>
</g>
<g>
</g>
<g>
</g>
<g>
</g>
<g>
</g>
<g>
</g>
<g>
</g>
<g>
</g>
<g>
</g>
<g>
</g>
<g>
</g>
<g>
</g>
<g>
</g>
</svg>
