<?xml version="1.0" encoding="iso-8859-1"?>
<!-- Generator: Adobe Illustrator 18.0.0, SVG Export Plug-In . SVG Version: 6.00 Build 0)  -->
<!DOCTYPE svg PUBLIC "-//W3C//DTD SVG 1.1//EN" "http://www.w3.org/Graphics/SVG/1.1/DTD/svg11.dtd">
<svg version="1.1" id="Capa_1" xmlns="http://www.w3.org/2000/svg" xmlns:xlink="http://www.w3.org/1999/xlink" x="0px" y="0px"
	 viewBox="0 0 477.933 477.933" style="enable-background:new 0 0 477.933 477.933;" xml:space="preserve">
<g>
	<path d="M293.787,297.509c1.845-8.68,2.924-17.634,2.924-26.876c0-13.443-2.235-26.314-6.021-38.498
		c-6.351,6.984-15.17,11.089-24.742,11.089c-2.894,0-5.786-0.375-8.586-1.118c-12.809-3.363-22.505-14.005-24.664-27.104
		l-4.535-27.947c-29.089-22.075-45.541-52.813-45.541-85.759c0-1.298,0.188-2.556,0.234-3.839
		c-5.348-1.182-10.854-2.002-16.625-2.002c-37.098,0-67.139,25.805-67.139,57.654c0,1.854,0.437,3.597,0.624,5.404
		c-38.253,22.739-63.979,64.371-63.979,112.119c0,9.242,1.078,18.18,2.924,26.86c-14.701,9.931-19.924,33.226-11.668,56.966
		c6.883,19.738,21.598,34.142,37.396,36.925c19.674,42.625,56.098,86.548,101.843,86.548c45.699,0,82.107-43.869,101.797-86.47
		c15.592-2.596,30.498-17.086,37.41-37.003c4.316-12.324,5.082-25.171,2.158-36.167
		C305.157,309.051,300.324,301.934,293.787,297.509z M62.495,284.708c27.448-13.004,63.794-20.957,103.736-20.957
		c39.943,0,76.273,7.945,103.705,20.949c0.547,2.962,1,5.951,1.329,8.992c-8.603,3.706-14.653,9.939-18.532,15.592
		c-7.289-6.389-20.19-9.023-29.934-10.94c-2.799-0.547-5.457-1.071-7.758-1.626c-13.668-3.268-27.385,2.955-34.625,14.083
		c-9.087-3.667-19.316-3.667-28.4,0.006c-7.289-11.119-21.114-17.32-34.611-14.09c-2.314,0.554-4.956,1.078-7.758,1.626
		c-9.758,1.923-22.645,4.551-29.917,10.932c-3.894-5.661-9.963-11.892-18.564-15.6C61.495,290.643,61.948,287.655,62.495,284.708z
		 M187.534,328.875c1.894,0.395,3.854,0.191,5.331-1.284c2.346-2.346,2.33-6.155-0.017-8.493c-0.755-0.747-1.61-1.307-2.415-1.963
		c0.007-0.025,0.015-0.052,0.022-0.077c3.661-5.639,9.963-9.228,17.002-9.228c1.595,0,3.205,0.196,4.77,0.572
		c2.471,0.586,5.27,1.141,8.242,1.728c10.619,2.087,26.664,5.246,25.851,11.675c-2.767,21.833-33.609,28.525-43.556,26.125
		C193.716,345.758,187.868,337.752,187.534,328.875z M139.487,327.591c1.503,1.5,3.504,1.689,5.428,1.267
		c-0.328,8.883-6.162,16.898-15.201,19.072c-10.104,2.4-40.82-4.292-43.57-26.125c-0.83-6.428,15.217-9.58,25.82-11.675
		c2.971-0.587,5.785-1.142,8.257-1.728c1.565-0.376,3.174-0.572,4.771-0.572c7.037,0,13.355,3.589,17.016,9.236
		c-0.83,0.688-1.721,1.259-2.503,2.032C137.157,321.436,137.141,325.245,139.487,327.591z M290.315,349.197
		c-5.271,15.201-16.985,26.667-27.494,26.667h-0.017c-2.783,0.366-6.192,1.845-7.475,4.801
		c-17.141,39.286-49.545,81.254-89.098,81.254c-39.568,0-71.957-41.968-89.097-81.246c-1.267-2.926-4.535-4.809-7.726-4.809
		c-10.261,0-21.99-11.465-27.293-26.667c-6.223-17.9-2.406-36.182,8.322-39.92c0.687-0.234,1.625-0.367,2.829-0.484
		c2.269-0.227,4.161-1.447,5.46-3.144c10.309,5.743,15.174,17.46,15.902,19.363c4.292,24.368,31.449,35.438,49.969,35.438
		c2.926,0,5.585-0.282,7.914-0.837c16.892-4.066,27.385-20.8,24.054-37.683c6.179-2.479,13.137-2.479,19.315-0.008
		c-3.332,16.899,7.178,33.617,24.084,37.691c2.314,0.556,4.973,0.837,7.898,0.837c18.508,0,45.652-11.06,49.959-35.41
		c0.968-2.424,5.965-13.776,15.898-19.353c1.313,1.673,3.207,2.886,5.458,3.105c1.204,0.117,2.144,0.25,2.8,0.478
		c6.396,2.227,9.102,9.18,10.15,13.121C294.194,330.219,293.537,339.977,290.315,349.197z"/>
	<path d="M326.739,0c-70.643,0-128.102,45.44-128.102,101.297c0,29.637,16.077,57.396,44.26,76.649l5.599,34.436
		c1.143,6.881,6.225,12.474,12.95,14.24c1.47,0.391,2.986,0.587,4.503,0.587c5.428,0,10.463-2.431,13.826-6.663l16.641-20.878
		c10.072,1.939,20.252,2.916,30.324,2.916c70.643,0,128.117-45.44,128.117-101.288C454.856,45.44,397.382,0,326.739,0z
		 M326.739,186.57c-10.541,0-21.239-1.196-31.764-3.557l-4.895-1.104l-22.833,28.66c-0.298,0.391-0.783,0.625-1.299,0.625
		l-0.422-0.054c-0.641-0.171-1.127-0.711-1.235-1.345l-6.709-41.396l-3.003-1.932c-25.383-16.296-39.928-40.053-39.928-65.17
		c0-47.028,50.28-85.282,112.088-85.282c61.807,0,112.104,38.254,112.104,85.282C438.843,148.317,388.546,186.57,326.739,186.57z"/>
</g>
<g>
</g>
<g>
</g>
<g>
</g>
<g>
</g>
<g>
</g>
<g>
</g>
<g>
</g>
<g>
</g>
<g>
</g>
<g>
</g>
<g>
</g>
<g>
</g>
<g>
</g>
<g>
</g>
<g>
</g>
</svg>
