<?xml version="1.0" encoding="iso-8859-1"?>
<!-- Generator: Adobe Illustrator 18.0.0, SVG Export Plug-In . SVG Version: 6.00 Build 0)  -->
<!DOCTYPE svg PUBLIC "-//W3C//DTD SVG 1.1//EN" "http://www.w3.org/Graphics/SVG/1.1/DTD/svg11.dtd">
<svg version="1.1" id="Capa_1" xmlns="http://www.w3.org/2000/svg" xmlns:xlink="http://www.w3.org/1999/xlink" x="0px" y="0px"
	 viewBox="0 0 440.953 440.953" style="enable-background:new 0 0 440.953 440.953;" xml:space="preserve">
<g>
	<path d="M368.122,145.643v-39.098c0.25-0.298,0.625-0.462,0.828-0.798l35.861-58.836c1.268-2.079,1.518-4.62,0.689-6.912
		c-0.83-2.292-2.675-4.074-4.975-4.848L296.869,0.415C296.04,0.141,295.18,0,294.319,0H146.634c-0.86,0-1.721,0.141-2.55,0.415
		L40.427,35.15c-2.3,0.774-4.145,2.556-4.975,4.848c-0.828,2.292-0.578,4.833,0.69,6.912l35.861,58.836
		c0.203,0.336,0.578,0.5,0.828,0.798v39.098c0,0.063,0.032,0.109,0.032,0.164c0.03,6.67,2.188,13.036,6.114,19.003
		c-5.059,13.51-9.097,31.495-10.673,46.865c-13.709,2.851-21.94,16.522-25.188,28.807c-3.599,13.574-2.628,29.464,2.689,44.751
		C54.47,310.114,73.083,328.131,92.85,331c24.535,53.768,70.343,109.953,127.627,109.953c57.284,0,103.092-56.185,127.627-109.953
		c19.767-2.87,38.38-20.886,47.044-45.768c5.316-15.288,6.287-31.177,2.688-44.751c-3.247-12.284-11.478-25.956-25.188-28.807
		c-1.576-15.37-5.613-33.355-10.673-46.865c3.926-5.967,6.084-12.333,6.114-19.003C368.09,145.751,368.122,145.705,368.122,145.643z
		 M266.544,109.586h89.566v30.052H247.355c9.259-6.529,16.154-16.289,18.767-28.128L266.544,109.586z M323.894,231.565h-84.313
		c-2.205,0-4.004,1.79-4.004,4.004v8.72c-5.268-4.083-10.061-6.561-15.1-6.561c-5.039,0-9.833,2.479-15.101,6.561v-8.72
		c0-2.213-1.799-4.004-4.004-4.004H117.06c-2.206,0-4.004,1.79-4.004,4.004v2.777c-4.222-5.013-9.915-10.597-16.734-15.539
		l15.844-32.372c26.504,12.401,64.633,20.174,108.312,20.174c43.679,0,81.808-7.773,108.311-20.174l15.844,32.372
		c-6.819,4.942-12.513,10.526-16.734,15.539v-2.777C327.898,233.355,326.1,231.565,323.894,231.565z M220.477,46.183l40.688,13.481
		l-10.683,48.397c-3.104,14.095-15.564,24.198-30.006,24.198c-14.442,0-26.902-10.103-30.006-24.198l-10.683-48.397L220.477,46.183z
		 M84.843,109.586h89.566l0.423,1.923c2.612,11.84,9.508,21.599,18.767,28.128H84.843V109.586z M262.242,404.765
		c0,3.627-1.376,6.817-3.315,9.602c-8.023,4.37-16.438,7.483-25.18,9.133v-23.271c0-4.34-3.519-7.86-7.851-7.86h-10.84
		c-4.332,0-7.851,3.52-7.851,7.86V423.5c-8.742-1.649-17.156-4.763-25.18-9.133c-1.939-2.785-3.315-5.976-3.315-9.602v-28.902
		c3.801-8.485,17-9.54,29.714-13.63c8.02-2.566,10.968-10.097,12.052-15.433c1.084,5.336,4.032,12.867,12.052,15.433
		c12.714,4.09,25.913,5.145,29.714,13.63V404.765z M366.832,226.044c0.456,0.093,0.868,0.2,1.242,0.329
		c6.726,2.346,11.808,8.813,14.278,18.204c2.785,10.51,1.955,23.076-2.33,35.385c-7.162,20.534-22.629,35.438-36.783,35.438
		c-3.191,0-6.585,1.877-7.852,4.802c-13.622,31.247-34.829,63.785-61.135,84.147v-50.977c0-13.489-10.979-24.461-24.459-24.461
		h-58.635c-13.48,0-24.459,10.972-24.459,24.461v50.977c-26.306-20.362-47.513-52.9-61.135-84.147
		c-1.267-2.925-4.66-4.802-7.852-4.802c-14.154,0-29.621-14.905-36.783-35.438c-4.285-12.309-5.115-24.875-2.33-35.385
		c2.471-9.391,7.553-15.858,14.278-18.204c0.374-0.128,0.786-0.236,1.242-0.329c1.784-0.364,3.623-0.149,5.278,0.611
		c17.62,8.097,30.789,27.682,33.656,32.202v6.004c0,13.92,11.324,25.251,25.258,25.251h41.804c13.936,0,25.259-11.331,25.259-25.251
		v-4.685c6.713-6.394,11.51-10.417,15.101-10.417c3.591,0,8.388,4.023,15.1,10.417v4.685c0,13.92,11.323,25.251,25.259,25.251
		h41.804c13.934,0,25.258-11.331,25.258-25.251v-6.004c2.867-4.52,16.036-24.105,33.656-32.202
		C363.209,225.895,365.048,225.681,366.832,226.044z"/>
	<path d="M220.467,210.609c0,0.005,0,0.001,0.01,0.001c0.01,0,0.01,0.004,0.01-0.001c0-0.007,0.01,0-0.01,0
		C220.457,210.609,220.467,210.602,220.467,210.609z"/>
</g>
<g>
</g>
<g>
</g>
<g>
</g>
<g>
</g>
<g>
</g>
<g>
</g>
<g>
</g>
<g>
</g>
<g>
</g>
<g>
</g>
<g>
</g>
<g>
</g>
<g>
</g>
<g>
</g>
<g>
</g>
</svg>
