<?xml version="1.0" encoding="iso-8859-1"?>
<!-- Generator: Adobe Illustrator 18.0.0, SVG Export Plug-In . SVG Version: 6.00 Build 0)  -->
<!DOCTYPE svg PUBLIC "-//W3C//DTD SVG 1.1//EN" "http://www.w3.org/Graphics/SVG/1.1/DTD/svg11.dtd">
<svg version="1.1" id="Capa_1" xmlns="http://www.w3.org/2000/svg" xmlns:xlink="http://www.w3.org/1999/xlink" x="0px" y="0px"
	 viewBox="0 0 489.49 489.49" style="enable-background:new 0 0 489.49 489.49;" xml:space="preserve">
<g>
	<path d="M230.232,299.526v16.14h28.823v-16.093c-4.724,0.9-9.509,1.392-14.326,1.392
		C239.849,300.964,235.017,300.448,230.232,299.526z"/>
	<path d="M379.665,276.481l-59.084-17.618c-3.816,4.779-7.806,9.133-11.935,13.153l66.452,19.815
		c6.475,1.932,10.838,7.774,10.838,14.537v25.915c0,73.169-55.957,133.497-127.32,140.489l16.657-39.334L259.259,326.34h-29.027
		l-16.015,107.099l16.655,39.334c-71.363-6.992-127.32-67.32-127.32-140.489v-25.915c0-6.763,4.363-12.605,10.854-14.537
		l66.421-19.807c-4.128-4.02-8.116-8.374-11.933-13.153l-59.07,17.61c-13.23,3.941-22.286,16.093-22.286,29.887v25.915
		c0,86.822,70.377,157.207,157.208,157.207c86.83,0,157.207-70.385,157.207-157.207v-25.915
		C401.952,292.574,392.898,280.422,379.665,276.481z"/>
	<g>
		<path d="M346.436,131.318c4.533-6.219,7.981-17.92,7.722-34.829c-0.094-5.686-0.594-12.065-1.688-19.378
			c-8.759-58.257-102.753-104.088-144.133-58.718c0,0-31.701-6.342-54.723,26.189c-9.307,13.153-22.771,39.576-21.537,61.667
			c0.527,9.449,3.731,18.496,11.162,24.975c-7.879,3.254-13.811,10.605-16.4,20.387c-2.455,9.329-1.814,20.206,1.814,30.614
			c5.725,16.438,17.906,28.519,31.17,31.224c16.468,35.33,46.762,71.503,84.905,71.503c38.113,0,68.407-36.118,84.874-71.424
			c13.06-2.558,25.447-14.709,31.232-31.302C368.573,159.92,362.24,137.973,346.436,131.318z M244.729,268.935
			c-14.591,0-27.915-7.327-39.505-18.126l9.181-25.836c3.378-9.492,12.355-15.834,22.427-15.834h15.904
			c10.072,0,19.05,6.342,22.428,15.834l9.165,25.758C272.708,261.577,259.367,268.935,244.729,268.935z M345.712,176.961
			c-4.771,13.669-14.465,21.042-21.348,21.042c-3.957,0.314-6.208,1.847-7.491,4.809c-7.194,16.524-17.751,33.532-30.622,46.208
			c3.957-6.662,6.35-14.303,6.35-22.528c0-25.337-21.426-45.887-47.872-45.887c-26.415,0-47.841,20.55-47.841,45.887
			c0,8.217,2.379,15.866,6.334,22.544c-12.871-12.676-23.428-29.691-30.639-46.224c-1.266-2.924-4.486-4.809-7.679-4.809
			c-6.692,0-16.374-7.373-21.128-21.042c-2.55-7.335-3.082-15.084-1.454-21.263c0.798-2.979,2.799-8.217,7.46-9.836
			c0.5-0.173,1.485-0.274,1.971-0.32c3.564-0.344,6.175-3.048,6.962-6.448c1.934-8.348,16.021-53.501,55.502-61.983
			c0,0,84.859,57.389,93.539,21.355c0,0,18.035,13.463,22.849,40.693c0.603,3.407,3.566,6.038,7.101,6.382
			c0.485,0.046,1.47,0.147,1.985,0.32C346.777,148.332,350.999,161.719,345.712,176.961z"/>
	</g>
</g>
<g>
</g>
<g>
</g>
<g>
</g>
<g>
</g>
<g>
</g>
<g>
</g>
<g>
</g>
<g>
</g>
<g>
</g>
<g>
</g>
<g>
</g>
<g>
</g>
<g>
</g>
<g>
</g>
<g>
</g>
</svg>
