<?xml version="1.0" encoding="iso-8859-1"?>
<!-- Generator: Adobe Illustrator 18.0.0, SVG Export Plug-In . SVG Version: 6.00 Build 0)  -->
<!DOCTYPE svg PUBLIC "-//W3C//DTD SVG 1.1//EN" "http://www.w3.org/Graphics/SVG/1.1/DTD/svg11.dtd">
<svg version="1.1" id="Capa_1" xmlns="http://www.w3.org/2000/svg" xmlns:xlink="http://www.w3.org/1999/xlink" x="0px" y="0px"
	 viewBox="0 0 480.45 480.45" style="enable-background:new 0 0 480.45 480.45;" xml:space="preserve">
<g>
	<path d="M449.601,380.35h-31.387v64.059h31.387c17.04,0,30.849-13.81,30.849-30.849v-25.045c0-5.951-1.768-11.457-4.684-16.172
		C468.29,377.393,459.29,380.35,449.601,380.35z"/>
	<path d="M449.601,300.276h-31.387v64.059h31.387c17.04,0,30.849-13.81,30.849-30.849v-25.045c0-5.951-1.768-11.457-4.684-16.172
		C468.29,297.32,459.29,300.276,449.601,300.276z"/>
	<path d="M449.601,220.203h-31.387v64.059h31.387c17.04,0,30.849-13.81,30.849-30.849v-25.045c0-5.951-1.768-11.457-4.684-16.172
		C468.29,217.246,459.29,220.203,449.601,220.203z"/>
	<path d="M449.601,140.129h-31.387v64.059h31.387c17.04,0,30.849-13.81,30.849-30.849v-25.046c0-5.951-1.768-11.457-4.684-16.171
		C468.29,137.173,459.29,140.129,449.601,140.129z"/>
	<path d="M449.601,37.37h-31.387v86.744h31.387c17.04,0,30.849-13.81,30.849-30.849V68.22C480.45,51.18,466.641,37.37,449.601,37.37
		z"/>
	<path d="M386.184,5.341H44.635C20.026,5.341,0,26.36,0,52.205v376.041c0,25.844,20.026,46.864,44.635,46.864h341.549
		c8.843,0,16.015-7.171,16.015-16.015V21.355C402.199,12.512,395.027,5.341,386.184,5.341z M32.029,428.246V52.205
		c0-8.181,5.654-14.835,12.605-14.835h22.06v405.71h-22.06C37.683,443.08,32.029,436.426,32.029,428.246z M370.169,443.08H90.716
		V37.37h279.453V443.08z"/>
	<g>
		<path d="M316.562,256.214l-45.365-13.524c-12.056,14.342-27.25,24.231-44.425,24.231c-17.175,0-32.37-9.889-44.427-24.231
			l-45.364,13.524c-8.798,2.625-14.829,10.712-14.829,19.896v17.235c0,57.775,46.841,104.619,104.619,104.619
			c57.777,0,104.619-46.843,104.619-104.619v-17.235C331.391,266.927,325.359,258.839,316.562,256.214z"/>
		<path d="M159.816,201.285c4.03,5.077,9.163,8.133,14.068,8.041c11.072,25.394,30.591,47.198,52.888,47.198
			c22.296,0,41.816-21.805,52.888-47.198c4.904,0.092,10.036-2.964,14.067-8.041c2.132-2.681,3.981-5.864,5.26-9.539
			c2.397-6.879,2.36-13.697,0.473-18.931c-1.484-4.101-4.082-7.254-7.728-8.533c-0.593,0.193-1.186,0.406-1.831,0.457
			c-0.199,0.015-0.396,0.02-0.595,0.02c-1.183,0-2.279-0.361-3.309-0.858c-1.961-0.949-3.554-2.615-4.204-4.797
			c-0.157-0.523-4.128-12.859-27.581-12.859c-2.253,0-4.64,0.116-7.153,0.345c0,0-2.453,0.218-6.234,0.218
			c-12.509,0-29.358-2.162-38.583-12.447c-1.949-2.178-3.451-4.615-4.492-7.269c-8.671,5.508-21.139,15.915-25.936,32.267
			c-0.609,2.066-2.052,3.624-3.839,4.585c-1.111,0.599-2.324,1.015-3.64,1.015c-0.305,0-0.609-0.014-0.918-0.056
			c-0.63-0.076-1.194-0.32-1.767-0.538c-3.553,1.319-6.102,4.411-7.564,8.452c-1.888,5.234-1.923,12.052,0.473,18.931
			C155.836,195.421,157.683,198.604,159.816,201.285z"/>
		<path d="M203.942,114.993c-2.37,21.646,24.835,24.018,36.882,24.018c3.381,0,5.569-0.188,5.569-0.188
			c2.776-0.259,5.382-0.375,7.818-0.375c30.504,0,35.105,18.615,35.105,18.615l1.889-14.016c3.975-29.46-16.52-56.625-45.934-60.895
			c-1.716-0.248-3.437-0.371-5.148-0.371c-9.828,0-19.311,4.041-26.134,11.321l-0.518,0.554c-4.513-2.062-9.332-3.076-14.129-3.076
			c-6.903,0-13.762,2.101-19.596,6.213c-11.102,7.823-17.412,20.794-16.727,34.354l1.309,26.013
			C173.198,126.943,203.942,114.993,203.942,114.993z"/>
	</g>
</g>
<g>
</g>
<g>
</g>
<g>
</g>
<g>
</g>
<g>
</g>
<g>
</g>
<g>
</g>
<g>
</g>
<g>
</g>
<g>
</g>
<g>
</g>
<g>
</g>
<g>
</g>
<g>
</g>
<g>
</g>
</svg>
