<?xml version="1.0" encoding="iso-8859-1"?>
<!-- Generator: Adobe Illustrator 18.0.0, SVG Export Plug-In . SVG Version: 6.00 Build 0)  -->
<!DOCTYPE svg PUBLIC "-//W3C//DTD SVG 1.1//EN" "http://www.w3.org/Graphics/SVG/1.1/DTD/svg11.dtd">
<svg version="1.1" id="Capa_1" xmlns="http://www.w3.org/2000/svg" xmlns:xlink="http://www.w3.org/1999/xlink" x="0px" y="0px"
	 viewBox="0 0 480.442 480.442" style="enable-background:new 0 0 480.442 480.442;" xml:space="preserve">
<g>
	<path d="M266.698,241.679c0,6.631,5.381,12.011,12.011,12.011h76.97c6.63,0,12.011-5.379,12.011-12.011
		c0-6.632-5.381-12.011-12.011-12.011h-76.97C272.079,229.668,266.698,235.048,266.698,241.679z"/>
	<path d="M266.698,289.723c0,6.632,5.381,12.011,12.011,12.011h125.014c6.63,0,12.011-5.379,12.011-12.011
		c0-6.632-5.381-12.011-12.011-12.011H278.71C272.079,277.713,266.698,283.092,266.698,289.723z"/>
	<path d="M371.694,325.757H278.71c-6.63,0-12.011,5.379-12.011,12.011c0,6.631,5.381,12.011,12.011,12.011h92.985
		c6.63,0,12.011-5.38,12.011-12.011C383.705,331.136,378.324,325.757,371.694,325.757z"/>
	<path d="M464.428,102.622H296.273V72.265c0-30.903-25.148-56.051-56.052-56.051s-56.043,25.148-56.043,56.051v30.356H16.015
		C7.171,102.622,0,109.793,0,118.636v329.577c0,8.843,7.171,16.015,16.015,16.015h448.413c8.843,0,16.015-7.171,16.015-16.015
		V118.636C480.442,109.793,473.271,102.622,464.428,102.622z M200.192,72.265c0-22.074,17.954-40.037,40.029-40.037
		s40.037,17.962,40.037,40.037v81.591h-80.065V72.265z M448.413,432.199H32.029V134.651h152.148v27.212
		c0,4.426,3.581,8.007,8.007,8.007h96.081c4.426,0,8.007-3.581,8.007-8.007v-27.212h152.14V432.199z"/>
	<path d="M240.229,54.515c-10.643,0-19.267,8.625-19.267,19.267c0,10.636,8.624,19.261,19.267,19.261
		c10.635,0,19.259-8.626,19.259-19.261C259.488,63.14,250.864,54.515,240.229,54.515z"/>
	<g>
		<path d="M218.041,301.286l-32.573-9.711c-8.656,10.298-19.566,17.398-31.898,17.398c-12.332,0-23.242-7.101-31.899-17.398
			l-32.572,9.711c-6.317,1.885-10.648,7.692-10.648,14.286v12.375c0,41.484,33.633,75.119,75.119,75.119
			c41.485,0,75.119-33.634,75.119-75.119v-12.375C228.689,308.978,224.358,303.171,218.041,301.286z"/>
		<path d="M105.494,261.845c2.894,3.646,6.58,5.839,10.101,5.773c7.95,18.233,21.965,33.89,37.975,33.89
			c16.009,0,30.025-15.656,37.975-33.89c3.522,0.066,7.206-2.128,10.101-5.773c1.531-1.925,2.858-4.21,3.777-6.85
			c1.721-4.939,1.694-9.834,0.339-13.593c-1.065-2.945-2.931-5.209-5.549-6.127c-0.426,0.139-0.852,0.292-1.314,0.328
			c-0.143,0.011-0.285,0.015-0.427,0.015c-0.849,0-1.637-0.259-2.376-0.616c-1.408-0.682-2.552-1.878-3.018-3.444
			c-0.113-0.375-2.964-9.233-19.804-9.233c-1.618,0-3.332,0.083-5.136,0.248c0,0-1.761,0.156-4.477,0.156
			c-8.982,0-21.08-1.553-27.704-8.938c-1.399-1.564-2.478-3.314-3.225-5.22c-6.226,3.955-15.178,11.428-18.623,23.168
			c-0.437,1.484-1.473,2.603-2.756,3.292c-0.798,0.43-1.669,0.729-2.613,0.729c-0.219,0-0.438-0.01-0.66-0.04
			c-0.452-0.054-0.857-0.23-1.269-0.386c-2.551,0.947-4.382,3.167-5.432,6.068c-1.355,3.758-1.381,8.654,0.339,13.593
			C102.637,257.635,103.963,259.921,105.494,261.845z"/>
		<path d="M137.178,199.886c-1.702,15.543,17.833,17.245,26.482,17.245c2.428,0,3.999-0.135,3.999-0.135
			c1.994-0.186,3.864-0.269,5.613-0.269c21.903,0,25.206,13.366,25.206,13.366l1.356-10.064
			c2.854-21.153-11.861-40.658-32.981-43.724c-1.232-0.178-2.468-0.266-3.696-0.266c-7.057,0-13.866,2.901-18.765,8.129
			l-0.372,0.398c-3.241-1.48-6.7-2.209-10.145-2.209c-4.956,0-9.881,1.509-14.07,4.461c-7.971,5.617-12.502,14.931-12.01,24.667
			l0.94,18.678C115.103,208.466,137.178,199.886,137.178,199.886z"/>
	</g>
</g>
<g>
</g>
<g>
</g>
<g>
</g>
<g>
</g>
<g>
</g>
<g>
</g>
<g>
</g>
<g>
</g>
<g>
</g>
<g>
</g>
<g>
</g>
<g>
</g>
<g>
</g>
<g>
</g>
<g>
</g>
</svg>
