<?xml version="1.0" encoding="iso-8859-1"?>
<!-- Generator: Adobe Illustrator 18.0.0, SVG Export Plug-In . SVG Version: 6.00 Build 0)  -->
<!DOCTYPE svg PUBLIC "-//W3C//DTD SVG 1.1//EN" "http://www.w3.org/Graphics/SVG/1.1/DTD/svg11.dtd">
<svg version="1.1" id="Capa_1" xmlns="http://www.w3.org/2000/svg" xmlns:xlink="http://www.w3.org/1999/xlink" x="0px" y="0px"
	 viewBox="0 0 479.331 479.331" style="enable-background:new 0 0 479.331 479.331;" xml:space="preserve">
<g>
	<path d="M381.583,254.929l-62.151-18.54c-4.027,5.029-8.235,9.61-12.566,13.842l23.937,7.139
		c-13.201,29.714-48.749,51.118-90.834,51.118c-42.163,0-77.775-21.466-90.912-51.274l23.397-6.967
		c-4.34-4.231-8.547-8.813-12.559-13.841l-62.104,18.524c-13.904,4.145-23.437,16.922-23.437,31.435v0.133
		c0,0.079-0.04,0.157-0.04,0.25V314c0,91.311,74.014,165.331,165.333,165.331c85.665,0,156.096-65.145,164.479-148.606
		c0.587-5.621,0.891-11.331,0.891-17.108v-27.252C405.017,271.852,395.485,259.074,381.583,254.929z"/>
	<path d="M346.174,102.07C340.426,44.337,294.736,0,239.647,0c-55.099,0-100.78,44.337-106.536,102.07
		c-8.374,3.385-14.702,11.167-17.445,21.535c-2.589,9.813-1.909,21.247,1.915,32.194c6.013,17.29,18.822,29.988,32.772,32.835
		c17.304,37.159,49.186,75.202,89.293,75.202c40.084,0,71.934-37.989,89.262-75.116c13.747-2.69,26.743-15.469,32.835-32.921
		C369.962,132.144,363.112,108.851,346.174,102.07z M175.393,70.181c3.479-7.107,5.676-14.78,6.467-22.654l0.625-6.107
		c12.645,6.569,33.312,10.909,57.044,10.909c23.975,0,44.8-4.435,57.375-11.104l0.632,6.302c0.806,7.875,3.003,15.547,6.475,22.654
		l19.603,40.084c-3.816,2.723-7.099,5.685-9.806,8.595c-0.751-1.149-1.837-2.05-3.314-2.05h-57.405
		c-2.322,0-4.207,1.885-4.207,4.215v2.503c-6.553-4.161-11.838-4.169-18.392-0.024v-2.479c0-2.33-1.885-4.215-4.207-4.215h-57.397
		c-1.509,0-2.605,0.923-3.347,2.112c-2.697-2.91-5.965-5.872-9.782-8.595L175.393,70.181z M266.491,236.217
		c0,1.142-0.274,2.189-0.648,3.198c-5.325,3.033-10.901,5.153-16.704,6.342h-0.117V233.12c0-2.948-2.4-5.349-5.356-5.349h-8.046
		c-2.956,0-5.349,2.401-5.349,5.349v12.637h-0.125c-5.661-1.158-11.119-3.176-16.327-6.1c-0.423-1.064-0.705-2.221-0.705-3.44
		v-21.059c3.926-3.174,10.901-4.175,17.791-6.372c7.615-2.44,8.499-11.463,8.609-13.81h0.147c0.11,2.346,0.995,11.369,8.609,13.81
		c7.21,2.306,14.428,3.347,18.22,6.896V236.217z M345.846,150.263c-5.029,14.372-15.218,22.129-22.45,22.129
		c-0.008,0-0.008,0-0.008,0c-3.526,0.266-6.515,1.939-7.874,5.059c-8.336,19.112-20.957,38.74-36.386,52.322v-28.541
		c0-10.416-8.468-18.885-18.884-18.885h-40.881c-10.408,0-18.878,8.469-18.878,18.885v28.831
		c-15.576-13.59-28.314-33.367-36.704-52.612c-1.337-3.073-4.725-5.059-8.086-5.059c-7.039,0-17.203-7.757-22.216-22.129
		c-2.683-7.718-3.246-15.858-1.524-22.357c0.82-3.136,2.938-8.648,7.843-10.345c0.085-0.031,0.208-0.064,0.355-0.099
		c1.41-0.328,2.892-0.123,4.16,0.577c9.402,5.193,17.41,16.186,20.359,20.57v2.355c0,10.299,8.375,18.673,18.673,18.673h28.473
		c10.297,0,18.673-8.374,18.673-18.673v-1.509c7.921-7.507,10.433-7.507,18.392,0.071v1.438c0,10.299,8.384,18.673,18.673,18.673
		h28.472c10.298,0,18.682-8.374,18.682-18.673v-2.487c2.884-4.311,10.969-15.488,20.279-20.464c1.281-0.685,2.764-0.878,4.178-0.547
		c0.14,0.033,0.256,0.064,0.339,0.094C346.972,120.157,351.406,134.232,345.846,150.263z"/>
</g>
<g>
</g>
<g>
</g>
<g>
</g>
<g>
</g>
<g>
</g>
<g>
</g>
<g>
</g>
<g>
</g>
<g>
</g>
<g>
</g>
<g>
</g>
<g>
</g>
<g>
</g>
<g>
</g>
<g>
</g>
</svg>
