<?xml version="1.0" encoding="iso-8859-1"?>
<!-- Generator: Adobe Illustrator 18.0.0, SVG Export Plug-In . SVG Version: 6.00 Build 0)  -->
<!DOCTYPE svg PUBLIC "-//W3C//DTD SVG 1.1//EN" "http://www.w3.org/Graphics/SVG/1.1/DTD/svg11.dtd">
<svg version="1.1" id="Capa_1" xmlns="http://www.w3.org/2000/svg" xmlns:xlink="http://www.w3.org/1999/xlink" x="0px" y="0px"
	 viewBox="0 0 491.137 491.137" style="enable-background:new 0 0 491.137 491.137;" xml:space="preserve">
<g>
	<path d="M287.638,294.793c0-12.215,2.471-23.851,6.914-34.471l-42.548-12.684c-18.572,22.091-41.976,37.324-68.429,37.324
		c-26.455,0-49.859-15.233-68.431-37.324l-69.877,20.832c-13.552,4.044-22.84,16.5-22.84,30.646v26.547
		c0,88.996,72.151,161.148,161.148,161.148c31.778,0,61.314-9.328,86.282-25.202V347.888c0-13.56,6.912-25.837,17.782-33.039
		V294.793z"/>
	<path d="M450.936,325.016v-30.223c0-40.609-33.039-73.648-73.646-73.648c-40.608,0-73.639,33.039-73.639,73.648v30.215
		c-10.205,2.65-17.781,11.846-17.781,22.88V467.42c0,13.097,10.618,23.716,23.716,23.716h135.406
		c13.099,0,23.718-10.619,23.718-23.716V347.888C468.711,336.853,461.141,327.666,450.936,325.016z M393.306,417.21v27.142
		c0,8.845-7.172,16.015-16.015,16.015c-8.845,0-16.014-7.17-16.014-16.015v-27.15c-8.477-5.341-14.146-14.716-14.146-25.468
		c0-16.664,13.504-30.169,30.167-30.169c16.657,0,30.161,13.505,30.161,30.169C407.458,402.493,401.783,411.868,393.306,417.21z
		 M418.907,324.17h-83.225v-29.377c0-22.951,18.665-41.618,41.609-41.618c22.951,0,41.616,18.667,41.616,41.618V324.17z"/>
	<path d="M80.656,184.162c6.211,7.824,14.122,12.533,21.679,12.392c17.063,39.133,47.143,72.735,81.504,72.735
		c34.359,0,64.441-33.602,81.503-72.735c7.558,0.141,15.466-4.568,21.679-12.392c3.285-4.131,6.135-9.037,8.105-14.7
		c3.693-10.601,3.637-21.108,0.728-29.174c-2.287-6.32-6.291-11.179-11.91-13.149c-0.913,0.297-1.828,0.626-2.821,0.705
		c-0.307,0.022-0.611,0.031-0.918,0.031c-1.822,0-3.512-0.556-5.099-1.322c-3.022-1.462-5.478-4.03-6.478-7.392
		c-0.242-0.807-6.361-19.817-42.505-19.817c-3.472,0-7.15,0.18-11.023,0.531c0,0-3.779,0.336-9.607,0.336
		c-19.277,0-45.243-3.332-59.459-19.182c-3.003-3.356-5.318-7.112-6.922-11.203c-13.363,8.489-32.577,24.527-39.97,49.725
		c-0.939,3.185-3.162,5.585-5.916,7.065c-1.712,0.923-3.581,1.564-5.609,1.564c-0.469,0-0.939-0.022-1.415-0.086
		c-0.971-0.117-1.84-0.493-2.723-0.829c-5.476,2.033-9.404,6.798-11.657,13.024c-2.909,8.066-2.964,18.573,0.728,29.174
		C74.523,175.126,77.37,180.031,80.656,184.162z"/>
	<path d="M148.657,51.181c-3.652,33.358,38.273,37.012,56.837,37.012c5.21,0,8.582-0.289,8.582-0.289
		c4.279-0.399,8.294-0.579,12.048-0.579c47.009,0,54.098,28.687,54.098,28.687l2.911-21.599
		c6.126-45.399-25.457-87.262-70.786-93.841C209.702,0.189,207.051,0,204.414,0c-15.145,0-29.759,6.227-40.274,17.446l-0.798,0.854
		c-6.955-3.177-14.38-4.74-21.773-4.74c-10.638,0-21.207,3.237-30.199,9.574c-17.108,12.055-26.833,32.045-25.776,52.94
		l2.017,40.087C101.279,69.597,148.657,51.181,148.657,51.181z"/>
</g>
<g>
</g>
<g>
</g>
<g>
</g>
<g>
</g>
<g>
</g>
<g>
</g>
<g>
</g>
<g>
</g>
<g>
</g>
<g>
</g>
<g>
</g>
<g>
</g>
<g>
</g>
<g>
</g>
<g>
</g>
</svg>
