<?xml version="1.0" encoding="iso-8859-1"?>
<!-- Generator: Adobe Illustrator 18.0.0, SVG Export Plug-In . SVG Version: 6.00 Build 0)  -->
<!DOCTYPE svg PUBLIC "-//W3C//DTD SVG 1.1//EN" "http://www.w3.org/Graphics/SVG/1.1/DTD/svg11.dtd">
<svg version="1.1" id="Capa_1" xmlns="http://www.w3.org/2000/svg" xmlns:xlink="http://www.w3.org/1999/xlink" x="0px" y="0px"
	 viewBox="0 0 462.47 462.47" style="enable-background:new 0 0 462.47 462.47;" xml:space="preserve">
<g>
	<path d="M150.727,185.17h174.912c22.457,0,40.663-21.513,40.663-48.044c0-23.148-13.857-42.462-32.311-47.013
		c1.704-6.1,2.908-12.402,2.908-19.048C336.898,31.818,305.088,0,265.833,0c-22.083,0-41.569,10.281-54.612,26.086
		c-3.426-0.659-6.943-1.063-10.572-1.063c-30.685,0-55.551,24.874-55.551,55.55c0,3.104,0.422,6.1,0.906,9.071
		c-20.205,2.792-35.938,22.858-35.938,47.482C110.065,163.658,128.27,185.17,150.727,185.17z"/>
	<path d="M246.191,277.02v-67.821c0-4.425-3.583-8.007-8.008-8.007c-4.427,0-8.008,3.582-8.008,8.007v67.821l-55.381,40.265
		c-3.58,2.596-4.361,7.608-1.766,11.181c2.596,3.589,7.617,4.348,11.182,1.768l53.973-39.239l53.972,39.239
		c1.422,1.031,3.065,1.533,4.706,1.533c2.472,0,4.912-1.142,6.475-3.301c2.597-3.573,1.814-8.585-1.766-11.181L246.191,277.02z"/>
	<g>
		<path d="M144.545,359.763l-32.872-9.799c-8.734,10.392-19.744,17.557-32.188,17.557c-12.444,0-23.453-7.165-32.19-17.557
			l-32.869,9.799c-6.375,1.902-10.744,7.762-10.744,14.416v12.487c0,41.863,33.94,75.804,75.804,75.804
			c41.862,0,75.803-33.94,75.803-75.804v-12.487C155.288,367.524,150.918,361.664,144.545,359.763z"/>
		<path d="M30.972,319.963c2.92,3.679,6.64,5.893,10.192,5.826c8.022,18.399,22.166,34.198,38.321,34.198
			s30.298-15.799,38.321-34.198c3.553,0.066,7.271-2.147,10.192-5.826c1.545-1.942,2.884-4.249,3.81-6.912
			c1.737-4.983,1.711-9.924,0.344-13.716c-1.074-2.972-2.959-5.257-5.6-6.184c-0.431,0.14-0.86,0.294-1.327,0.331
			c-0.145,0.011-0.288,0.015-0.431,0.015c-0.858,0-1.651-0.261-2.399-0.622c-1.421-0.688-2.575-1.894-3.045-3.476
			c-0.113-0.379-2.991-9.317-19.984-9.317c-1.634,0-3.363,0.085-5.184,0.251c0,0-1.777,0.157-4.517,0.157
			c-9.063,0-21.272-1.566-27.956-9.019c-1.412-1.578-2.502-3.343-3.255-5.267c-6.284,3.991-15.317,11.531-18.793,23.379
			c-0.44,1.497-1.486,2.627-2.78,3.322c-0.806,0.434-1.685,0.735-2.639,0.735c-0.221,0-0.44-0.011-0.664-0.04
			c-0.457-0.055-0.866-0.232-1.281-0.391c-2.574,0.957-4.422,3.196-5.481,6.125c-1.369,3.792-1.394,8.732,0.342,13.716
			C28.087,315.714,29.427,318.021,30.972,319.963z"/>
		<path d="M62.943,257.439c-1.717,15.684,17.995,17.402,26.724,17.402c2.449,0,4.034-0.136,4.034-0.136
			c2.013-0.188,3.899-0.272,5.666-0.272c22.102,0,25.436,13.488,25.436,13.488l1.368-10.156c2.88-21.345-11.97-41.028-33.283-44.122
			c-1.243-0.18-2.489-0.269-3.729-0.269c-7.12,0-13.991,2.928-18.936,8.203l-0.375,0.401c-3.27-1.494-6.762-2.23-10.237-2.23
			c-5.002,0-9.971,1.524-14.198,4.503c-8.043,5.668-12.615,15.066-12.119,24.892l0.948,18.847
			C40.667,266.097,62.943,257.439,62.943,257.439z"/>
	</g>
	<g>
		<path d="M448.045,359.763l-32.872-9.799c-8.734,10.392-19.744,17.557-32.188,17.557c-12.444,0-23.453-7.165-32.19-17.557
			l-32.869,9.799c-6.375,1.902-10.744,7.762-10.744,14.416v12.487c0,41.863,33.94,75.804,75.804,75.804
			c41.862,0,75.803-33.94,75.803-75.804v-12.487C458.788,367.524,454.418,361.664,448.045,359.763z"/>
		<path d="M334.472,319.963c2.92,3.679,6.64,5.893,10.192,5.826c8.022,18.399,22.166,34.198,38.321,34.198
			s30.298-15.799,38.321-34.198c3.553,0.066,7.272-2.147,10.192-5.826c1.545-1.942,2.884-4.249,3.81-6.912
			c1.737-4.983,1.711-9.924,0.344-13.716c-1.074-2.972-2.959-5.257-5.6-6.184c-0.431,0.14-0.86,0.294-1.327,0.331
			c-0.145,0.011-0.288,0.015-0.431,0.015c-0.858,0-1.651-0.261-2.398-0.622c-1.421-0.688-2.575-1.894-3.045-3.476
			c-0.113-0.379-2.991-9.317-19.984-9.317c-1.634,0-3.363,0.085-5.184,0.251c0,0-1.777,0.157-4.517,0.157
			c-9.064,0-21.272-1.566-27.956-9.019c-1.412-1.578-2.502-3.343-3.255-5.267c-6.284,3.991-15.317,11.531-18.793,23.379
			c-0.44,1.497-1.486,2.627-2.78,3.322c-0.806,0.434-1.685,0.735-2.639,0.735c-0.221,0-0.44-0.011-0.664-0.04
			c-0.457-0.055-0.866-0.232-1.281-0.391c-2.574,0.957-4.422,3.196-5.48,6.125c-1.369,3.792-1.394,8.732,0.342,13.716
			C331.587,315.714,332.927,318.021,334.472,319.963z"/>
		<path d="M366.443,257.439c-1.717,15.684,17.995,17.402,26.724,17.402c2.449,0,4.034-0.136,4.034-0.136
			c2.013-0.188,3.899-0.272,5.666-0.272c22.102,0,25.436,13.488,25.436,13.488l1.368-10.156c2.88-21.345-11.97-41.028-33.283-44.122
			c-1.243-0.18-2.489-0.269-3.73-0.269c-7.12,0-13.991,2.928-18.935,8.203l-0.375,0.401c-3.27-1.494-6.762-2.23-10.237-2.23
			c-5.002,0-9.971,1.524-14.198,4.503c-8.043,5.668-12.615,15.066-12.119,24.892l0.948,18.847
			C344.167,266.097,366.443,257.439,366.443,257.439z"/>
	</g>
</g>
<g>
</g>
<g>
</g>
<g>
</g>
<g>
</g>
<g>
</g>
<g>
</g>
<g>
</g>
<g>
</g>
<g>
</g>
<g>
</g>
<g>
</g>
<g>
</g>
<g>
</g>
<g>
</g>
<g>
</g>
</svg>
