<?xml version="1.0" encoding="iso-8859-1"?>
<!-- Generator: Adobe Illustrator 18.0.0, SVG Export Plug-In . SVG Version: 6.00 Build 0)  -->
<!DOCTYPE svg PUBLIC "-//W3C//DTD SVG 1.1//EN" "http://www.w3.org/Graphics/SVG/1.1/DTD/svg11.dtd">
<svg version="1.1" id="Capa_1" xmlns="http://www.w3.org/2000/svg" xmlns:xlink="http://www.w3.org/1999/xlink" x="0px" y="0px"
	 viewBox="0 0 480.286 480.286" style="enable-background:new 0 0 480.286 480.286;" xml:space="preserve">
<path d="M363.828,301.465l-66.828-19.918c10.15-11.51,18.635-25.029,24.953-38.526c12.613-2.55,24.516-14.279,30.076-30.255
	c3.511-10.072,4.137-20.597,1.743-29.621c-2.473-9.34-8.097-16.392-15.551-19.626c1.492-6.881,2.392-14.545,2.392-21.857
	c0-36.502-19.526-68.36-48.646-85.954c0.844-3.237,1.375-6.569,1.375-10.025C293.34,20.448,269.521,0,240.142,0
	c-29.386,0-53.198,20.448-53.198,45.682c0,3.456,0.532,6.788,1.377,10.025c-29.122,17.594-48.647,49.452-48.647,85.954
	c0,7.336,0.872,14.969,2.372,21.866c-7.444,3.246-13.061,10.293-15.532,19.617c-2.393,9.024-1.767,19.549,1.744,29.621
	c5.513,15.835,17.25,27.502,30.044,30.184c6.318,13.52,14.819,27.063,24.983,38.591l-31.997,9.539l-34.829,10.384
	c-15.452,4.606-24.679,20.401-21.113,36.12l7.522,33.109c14.56,64.098,71.542,109.592,137.274,109.592
	c65.732,0,122.714-45.495,137.275-109.592l7.522-33.109C388.506,321.866,379.279,306.071,363.828,301.465z M171.079,232.331
	c-1.275-2.924-4.465-4.809-7.648-4.809c-6.342,0-15.522-7.014-20.05-20.026c-2.439-6.99-2.948-14.372-1.384-20.252
	c0.743-2.807,2.636-7.741,6.983-9.258c0.43-0.149,1.345-0.244,1.837-0.29c3.95-0.399,7.015-3.621,7.202-7.585
	c0.296-6.139,1.212-12.075,2.596-17.807c21.09-9.906,48.944-15.952,79.526-15.952c30.583,0,58.436,6.046,79.526,15.952
	c1.385,5.732,2.3,11.668,2.598,17.807c0.188,3.963,3.252,7.186,7.202,7.585c0.491,0.046,1.408,0.141,1.853,0.296
	c4.332,1.51,6.225,6.444,6.966,9.251c1.565,5.881,1.057,13.262-1.383,20.26c-4.527,13.004-13.707,20.018-20.206,20.018
	c0,0,0,0-0.008,0c-3.285,0.157-6.185,1.838-7.484,4.809c-13.356,30.638-38.52,63.371-69.064,63.371
	C209.599,295.701,184.435,262.968,171.079,232.331z M240.237,446.427c-8.257,0-14.959-6.702-14.959-14.96
	c0-8.265,6.702-14.96,14.959-14.96c8.257,0,14.959,6.694,14.959,14.96C255.196,439.725,248.494,446.427,240.237,446.427z
	 M225.183,380.937c0-8.257,6.702-14.96,14.959-14.96c8.257,0,14.96,6.702,14.96,14.96c0,8.265-6.702,14.959-14.96,14.959
	C231.885,395.896,225.183,389.202,225.183,380.937z M240.135,345.459c-30.199,0-57.389-16.649-71.543-42.822l27.987-8.344
	c12.77,10.456,27.377,17.422,43.563,17.422c16.196,0,30.795-6.966,43.564-17.422l27.995,8.344
	C297.556,328.826,270.382,345.459,240.135,345.459z"/>
<g>
</g>
<g>
</g>
<g>
</g>
<g>
</g>
<g>
</g>
<g>
</g>
<g>
</g>
<g>
</g>
<g>
</g>
<g>
</g>
<g>
</g>
<g>
</g>
<g>
</g>
<g>
</g>
<g>
</g>
</svg>
