<?xml version="1.0" encoding="iso-8859-1"?>
<!-- Generator: Adobe Illustrator 18.0.0, SVG Export Plug-In . SVG Version: 6.00 Build 0)  -->
<!DOCTYPE svg PUBLIC "-//W3C//DTD SVG 1.1//EN" "http://www.w3.org/Graphics/SVG/1.1/DTD/svg11.dtd">
<svg version="1.1" id="Capa_1" xmlns="http://www.w3.org/2000/svg" xmlns:xlink="http://www.w3.org/1999/xlink" x="0px" y="0px"
	 viewBox="0 0 480.286 480.286" style="enable-background:new 0 0 480.286 480.286;" xml:space="preserve">
<path d="M363.828,301.465L297,281.547c10.15-11.51,18.635-25.029,24.953-38.526c12.613-2.55,24.515-14.279,30.076-30.255
	c3.51-10.072,4.137-20.597,1.742-29.621c-2.48-9.367-8.129-16.435-15.617-19.656c1.524-6.94,2.458-14.43,2.458-21.828
	c0-36.502-19.527-68.36-48.646-85.954c0.844-3.237,1.376-6.569,1.376-10.025C293.341,20.448,269.522,0,240.143,0
	c-29.385,0-53.198,20.448-53.198,45.682c0,3.456,0.532,6.788,1.377,10.025c-29.121,17.594-48.646,49.452-48.646,85.954
	c0,7.265,0.938,14.994,2.415,21.847c-7.466,3.237-13.1,10.295-15.576,19.637c-2.393,9.024-1.766,19.549,1.744,29.621
	c5.512,15.835,17.249,27.502,30.044,30.184c6.317,13.52,14.818,27.063,24.983,38.591l-66.826,19.924
	c-15.453,4.606-24.679,20.401-21.114,36.12l7.522,33.109c14.561,64.098,71.542,109.592,137.275,109.592
	s122.715-45.495,137.275-109.592l7.522-33.109C388.506,321.866,379.279,306.071,363.828,301.465z M160.617,152.303
	c21.09-9.906,48.944-15.952,79.526-15.952c30.584,0,58.437,6.046,79.526,15.952c0.672,2.777,0.9,5.718,1.323,8.587
	c-4.255,2.227-7.711,5.168-10.37,8.219c-7.546-2.088-17.523-2.69-23.897-3.52c-14.303-1.877-29.019,1.283-35.962,10.017
	c-6.787-2.525-14.442-2.518-21.231,0.008c-6.936-8.743-21.66-11.902-35.962-10.025c-6.373,0.83-16.351,1.432-23.905,3.52
	c-2.659-3.059-6.115-5.999-10.368-8.219C159.718,158.013,159.944,155.081,160.617,152.303z M118.483,367.143l-7.522-33.101
	c-1.696-7.476,2.729-15.038,10.072-17.227l40.21-11.987l15.201,26.852c4.403,7.782,12.489,12.762,21.418,13.185
	c8.93,0.429,17.453-3.754,22.576-11.072l11.697-16.712l0.008,146.846C177.006,460.479,130.879,421.7,118.483,367.143z
	 M171.079,232.331c-1.275-2.924-4.465-4.809-7.647-4.809c-6.342,0-15.523-7.014-20.05-20.026c-2.439-6.99-2.948-14.372-1.384-20.252
	c0.743-2.807,2.636-7.741,6.982-9.258c0.431-0.149,1.345-0.244,1.838-0.29c2.69-0.274,4.895-1.916,6.13-4.152
	c1.001,0.767,1.907,1.595,2.737,2.447c-2.088,6.553,3.862,18.173,7.318,23.311c5.585,8.314,21.263,21.434,39.505,16.758
	c18.001-4.614,29.754-19.354,26.642-33.133c4.527-1.517,9.461-1.517,13.989-0.006c-3.112,13.786,8.642,28.525,26.642,33.139
	c18.244,4.676,33.922-8.444,39.505-16.758c3.456-5.138,9.407-16.758,7.319-23.311c0.821-0.852,1.736-1.68,2.729-2.447
	c1.237,2.237,3.442,3.878,6.132,4.152c0.492,0.046,1.408,0.141,1.853,0.296c4.332,1.51,6.225,6.444,6.966,9.251
	c1.565,5.881,1.057,13.262-1.384,20.26c-4.527,13.004-13.707,20.018-20.206,20.018c0,0,0,0-0.008,0
	c-3.041,0.157-6.193,1.838-7.483,4.809c-13.357,30.638-38.521,63.371-69.064,63.371C209.6,295.701,184.436,262.968,171.079,232.331z
	 M369.324,334.034l-7.522,33.109c-12.394,54.557-58.515,93.327-113.644,96.783l-0.008-146.846l11.698,16.712
	c5.122,7.318,13.645,11.501,22.576,11.072c8.93-0.423,17.016-5.403,21.418-13.185l15.201-26.852l40.208,11.987
	C366.595,319.004,371.021,326.566,369.324,334.034z"/>
<g>
</g>
<g>
</g>
<g>
</g>
<g>
</g>
<g>
</g>
<g>
</g>
<g>
</g>
<g>
</g>
<g>
</g>
<g>
</g>
<g>
</g>
<g>
</g>
<g>
</g>
<g>
</g>
<g>
</g>
</svg>
