<?xml version="1.0" encoding="iso-8859-1"?>
<!-- Generator: Adobe Illustrator 18.0.0, SVG Export Plug-In . SVG Version: 6.00 Build 0)  -->
<!DOCTYPE svg PUBLIC "-//W3C//DTD SVG 1.1//EN" "http://www.w3.org/Graphics/SVG/1.1/DTD/svg11.dtd">
<svg version="1.1" id="Capa_1" xmlns="http://www.w3.org/2000/svg" xmlns:xlink="http://www.w3.org/1999/xlink" x="0px" y="0px"
	 viewBox="0 0 479.957 479.957" style="enable-background:new 0 0 479.957 479.957;" xml:space="preserve">
<path d="M365.41,298.611l-67.773-20.198c10.299-11.669,18.901-25.383,25.305-39.068c12.792-2.588,24.858-14.482,30.505-30.684
	c3.557-10.213,4.191-20.887,1.766-30.036c-2.119-7.991-6.591-14.184-12.448-17.946c1.267-6.459,2.064-13.075,2.064-19.925
	c0-38.363-20.667-71.808-51.407-90.083c0.157-1.455,0.509-2.854,0.509-4.348C293.931,20.738,269.776,0,239.982,0
	c-29.801,0-53.948,20.738-53.948,46.324c0,1.494,0.343,2.893,0.508,4.348c-30.747,18.275-51.415,51.72-51.415,90.083
	c0,6.85,0.806,13.466,2.072,19.933c-5.865,3.76-10.337,9.955-12.448,17.938c-2.433,9.149-1.799,19.823,1.766,30.036
	c5.592,16.061,17.493,27.893,30.466,30.614c6.404,13.708,15.03,27.448,25.335,39.13l-67.773,20.206
	c-15.662,4.676-25.023,20.691-21.41,36.635l7.631,33.57c14.764,65.005,72.552,111.141,139.215,111.141
	c66.655,0,124.442-46.135,139.206-111.141l7.633-33.57C390.433,319.302,381.082,303.288,365.41,298.611z M158.673,151.148
	c21.809-9.892,50.179-15.913,81.309-15.913c31.122,0,59.5,6.021,81.302,15.913c0.492,2.51,0.766,5.105,1.064,7.694
	c-5.717,2.918-10.088,7.063-13.052,11.096c-6.223-4.668-16.053-6.662-23.607-8.148c-2.235-0.445-4.348-0.86-6.192-1.297
	c-11.206-2.667-22.56,2.251-28.777,11.228c-6.92-2.385-14.561-2.385-21.473,0c-6.232-8.977-17.609-13.895-28.785-11.228
	c-1.845,0.437-3.956,0.852-6.193,1.297c-7.546,1.486-17.374,3.48-23.6,8.148c-2.964-4.034-7.343-8.179-13.058-11.096
	C157.915,156.253,158.18,153.657,158.673,151.148z M262.347,178.805c-0.328-0.328-0.735-0.562-1.08-0.876
	c2.769-3.643,7.022-6.012,11.854-6.012c1.182,0,2.37,0.14,3.534,0.421c1.987,0.469,4.27,0.922,6.678,1.399
	c6.569,1.291,20.254,3.988,19.745,7.977c-2.095,16.577-25.89,21.769-33.452,19.924c-6.17-1.486-10.486-6.607-11.346-12.542
	c1.47-0.063,2.94-0.556,4.066-1.682C264.731,185.038,264.731,181.183,262.347,178.805z M217.609,187.415
	c1.12,1.12,2.589,1.627,4.066,1.689c-0.86,5.935-5.168,11.049-11.338,12.535c-1.023,0.242-2.338,0.369-3.809,0.369
	c-9.445,0-27.83-5.943-29.651-20.284c-0.509-3.998,13.175-6.694,19.753-7.985c2.408-0.477,4.684-0.93,6.67-1.399
	c1.164-0.282,2.36-0.421,3.543-0.421c4.824,0,9.087,2.369,11.854,6.02c-0.352,0.306-0.759,0.54-1.087,0.868
	C215.233,181.183,215.233,185.038,217.609,187.415z M169.941,228.507c-1.29-2.971-4.527-4.878-7.757-4.878
	c-6.428,0-15.741-7.117-20.331-20.309c-2.471-7.093-2.988-14.577-1.399-20.542c0.749-2.848,2.666-7.852,7.077-9.385
	c0.437-0.155,1.367-0.249,1.86-0.296c1.915-0.187,3.597-1.071,4.88-2.338c6.874,4.481,10.344,12.728,10.966,14.333
	c3.823,20.006,26.071,29.097,41.292,29.097c2.441,0,4.676-0.233,6.656-0.703c13.786-3.317,22.465-16.641,20.463-30.404
	c4.105-1.353,8.564-1.353,12.66,0c-2.002,13.763,6.686,27.087,20.472,30.404c1.971,0.469,4.207,0.703,6.647,0.703
	c15.179,0,37.331-9.041,41.253-28.912c0.847-2.118,4.419-10.212,11.014-14.51c1.281,1.259,2.955,2.143,4.872,2.33
	c0.5,0.047,1.423,0.141,1.876,0.305c4.396,1.524,6.311,6.529,7.07,9.376c1.587,5.965,1.07,13.449-1.408,20.55
	c-4.591,13.183-13.904,20.3-20.488,20.3c0,0,0,0-0.008,0c-3.176-0.252-6.279,1.869-7.593,4.878
	c-13.543,31.069-39.06,64.262-70.034,64.262C209.008,292.769,183.485,259.576,169.941,228.507z M239.982,350.221
	c-32.022,0-58.718-22.536-65.28-52.586l21.098-6.295c12.95,10.604,27.76,17.672,44.182,17.672c16.421,0,31.224-7.069,44.173-17.672
	l21.098,6.295C298.692,327.685,272.003,350.221,239.982,350.221z"/>
<g>
</g>
<g>
</g>
<g>
</g>
<g>
</g>
<g>
</g>
<g>
</g>
<g>
</g>
<g>
</g>
<g>
</g>
<g>
</g>
<g>
</g>
<g>
</g>
<g>
</g>
<g>
</g>
<g>
</g>
</svg>
