<?xml version="1.0" encoding="iso-8859-1"?>
<!-- Generator: Adobe Illustrator 18.0.0, SVG Export Plug-In . SVG Version: 6.00 Build 0)  -->
<!DOCTYPE svg PUBLIC "-//W3C//DTD SVG 1.1//EN" "http://www.w3.org/Graphics/SVG/1.1/DTD/svg11.dtd">
<svg version="1.1" id="Capa_1" xmlns="http://www.w3.org/2000/svg" xmlns:xlink="http://www.w3.org/1999/xlink" x="0px" y="0px"
	 viewBox="0 0 480.286 480.286" style="enable-background:new 0 0 480.286 480.286;" xml:space="preserve">
<path d="M363.828,301.465L297,281.547c10.15-11.51,18.635-25.029,24.953-38.527c12.613-2.549,24.515-14.278,30.076-30.255
	c3.51-10.072,4.136-20.597,1.742-29.621c-2.453-9.265-8.009-16.278-15.374-19.546c1.465-6.853,2.215-14.679,2.215-21.937
	c0-36.502-19.527-68.36-48.647-85.954c0.844-3.237,1.375-6.569,1.375-10.025C293.34,20.448,269.521,0,240.143,0
	c-29.385,0-53.196,20.448-53.196,45.682c0,3.456,0.532,6.789,1.376,10.025c-29.121,17.594-48.646,49.452-48.646,85.954
	c0,10.417,1.23,18.208,2.031,22.02c-7.274,3.311-12.759,10.282-15.192,19.463c-2.393,9.025-1.766,19.549,1.744,29.621
	c5.512,15.836,17.251,27.502,30.044,30.185c6.318,13.52,14.819,27.064,24.983,38.591l-66.827,19.924
	c-15.452,4.606-24.679,20.401-21.114,36.12l7.524,33.109c14.559,64.098,71.541,109.592,137.273,109.592
	s122.715-45.495,137.275-109.592l7.522-33.109C388.507,321.866,379.279,306.071,363.828,301.465z M171.079,232.331
	c-1.275-2.924-4.465-4.81-7.647-4.81c-6.342,0-15.521-7.014-20.05-20.026c-2.439-6.99-2.947-14.372-1.384-20.252
	c0.743-2.808,2.636-7.742,6.982-9.258c0.431-0.149,1.345-0.244,1.838-0.29c3.949-0.399,7.014-3.621,7.202-7.584
	c0.298-6.139,1.212-12.075,2.596-17.807c21.09-9.907,48.944-15.953,79.526-15.953c30.583,0,58.438,6.046,79.528,15.953
	c1.383,5.732,2.298,11.668,2.596,17.807c0.187,3.964,3.252,7.186,7.202,7.584c0.492,0.046,1.408,0.141,1.853,0.296
	c4.332,1.51,6.225,6.444,6.966,9.252c1.564,5.88,1.057,13.262-1.384,20.26c-4.527,13.004-13.707,20.019-20.206,20.019
	c0,0,0,0-0.008,0c-3.277-0.046-6.185,1.845-7.484,4.81c-13.356,30.638-38.519,63.37-69.063,63.37
	C209.6,295.701,184.436,262.969,171.079,232.331z M196.579,294.293c12.771,10.456,27.378,17.422,43.564,17.422
	c16.196,0,30.795-6.966,43.563-17.422l27.995,8.344c-14.146,26.189-41.319,42.822-71.566,42.822
	c-30.199,0-57.389-16.649-71.541-42.822L196.579,294.293z M369.324,334.034l-7.522,33.109
	c-12.988,57.186-63.018,97.128-121.659,97.128c-58.64,0-108.669-39.942-121.658-97.128l-7.523-33.101
	c-1.696-7.476,2.729-15.038,10.072-17.227l31.991-9.54c16.43,33.031,49.859,54.199,87.111,54.199c37.308,0,70.69-21.16,87.12-54.199
	l31.998,9.54C366.595,319.004,371.021,326.566,369.324,334.034z"/>
<g>
</g>
<g>
</g>
<g>
</g>
<g>
</g>
<g>
</g>
<g>
</g>
<g>
</g>
<g>
</g>
<g>
</g>
<g>
</g>
<g>
</g>
<g>
</g>
<g>
</g>
<g>
</g>
<g>
</g>
</svg>
