<?xml version="1.0" encoding="iso-8859-1"?>
<!-- Generator: Adobe Illustrator 18.0.0, SVG Export Plug-In . SVG Version: 6.00 Build 0)  -->
<!DOCTYPE svg PUBLIC "-//W3C//DTD SVG 1.1//EN" "http://www.w3.org/Graphics/SVG/1.1/DTD/svg11.dtd">
<svg version="1.1" id="Capa_1" xmlns="http://www.w3.org/2000/svg" xmlns:xlink="http://www.w3.org/1999/xlink" x="0px" y="0px"
	 viewBox="0 0 475.595 475.595" style="enable-background:new 0 0 475.595 475.595;" xml:space="preserve">
<path d="M398.499,205.268v-44.572C398.499,72.082,326.403,0,237.79,0S77.087,72.082,77.087,160.695v44.572
	c-15.35,10.322-25.46,27.838-25.46,47.724c0,31.74,25.734,57.467,57.467,57.467c2.423,0,4.55-0.954,6.302-2.378
	c4.153,2.346,8.515,4.004,12.965,4.763c21.262,46.159,60.68,93.767,110.14,93.767c49.484,0,88.871-47.559,110.141-93.704
	c4.175-0.673,8.312-2.165,12.292-4.332c1.619,1.096,3.464,1.885,5.568,1.885c5.263,0,10.267-0.93,15.108-2.259v50.022
	c0,45.752-37.223,82.976-82.976,82.976h-2.94c-3.496-10.277-13.113-17.72-24.57-17.72h-52.181
	c-14.388,0-26.063,11.667-26.063,26.062c0,14.39,11.675,26.057,26.063,26.057h52.181c11.457,0,21.074-7.438,24.57-17.713h2.94
	c54.95,0,99.662-44.711,99.662-99.661v-57.389c15.46-10.299,25.673-27.869,25.673-47.841
	C423.969,233.106,413.858,215.583,398.499,205.268z M356.344,291.363c-4.495,3.222-9.086,5.278-13.145,5.278c0,0,0,0-0.016,0
	c-2.83-0.016-6.435,1.916-7.788,5.013c-18.603,42.671-53.83,88.269-96.894,88.269c-43.024,0-78.251-45.597-96.87-88.269
	c-1.329-3.043-4.793-4.997-8.11-4.997c-4.69,0-9.641-2.276-14.271-6.038v-71.878c12.009,7.399,22.902,21.189,24.789,24.202
	c-0.157,1.164-0.36,2.322-0.36,3.534c0,15.302,12.45,27.76,27.76,27.76h28.815c14.929,0,27.049-11.872,27.651-26.65
	c6.725-2.753,14.474-2.753,21.19,0c0.602,14.778,12.724,26.65,27.651,26.65h28.815c15.312,0,27.768-12.458,27.768-27.76
	c0-1.22-0.203-2.378-0.36-3.542c1.897-3.038,11.326-15.84,23.374-23.15V291.363z M266.347,244.265
	c-1.223-1.106-2.496-2.081-3.778-3.058c2.159-5.81,7.641-9.995,14.194-9.995h28.783c8.422,0,15.265,6.843,15.265,15.265
	c0,8.406-6.836,15.24-15.249,15.24h-28.815c-5.553,0-10.213-3.128-12.879-7.577C269.024,252.683,269.024,246.688,266.347,244.265z
	 M305.547,218.694h-28.783c-11.339,0-21.074,6.85-25.384,16.593c-8.32-2.737-17.43-2.737-25.75,0.008
	c-4.316-9.751-14.051-16.601-25.39-16.601h-28.785c-8.851,0-16.649,4.237-21.738,10.698c-5.195-6.702-13.847-15.704-25.386-21.431
	l41.197-76.19c5.778-10.714,18.72-14.584,29.027-8.665c27.37,15.718,60.485,15.718,87.838,0.008
	c10.307-5.919,23.265-2.056,29.043,8.672l41.143,76.224c-11.492,5.73-20.104,14.699-25.292,21.382
	C322.203,222.932,314.399,218.694,305.547,218.694z M213.133,254.141c-2.666,4.449-7.327,7.577-12.879,7.577h-28.815
	c-8.414,0-15.248-6.834-15.248-15.24c0-8.422,6.842-15.265,15.264-15.265h28.785c6.552,0,12.033,4.185,14.2,9.995
	c-1.291,0.985-2.628,1.892-3.792,3.058C208.199,246.704,207.795,252.859,213.133,254.141z M381.812,197.846
	c-3.776-1.047-7.671-1.704-11.713-1.954l1.782-9.056c6.749-34.297-2.713-69.931-25.625-96.33
	c-25.257-29.097-61.111-50.687-92.842-50.687h-29.865c-31.739,0-67.601,21.598-92.858,50.711
	c-22.935,26.423-32.365,61.955-25.617,96.276l1.759,8.946c-4.527,0.18-8.859,0.939-13.059,2.103v-37.159
	c0-79.401,64.615-144.008,144.016-144.008c79.409,0,144.022,64.606,144.022,144.008V197.846z"/>
<g>
</g>
<g>
</g>
<g>
</g>
<g>
</g>
<g>
</g>
<g>
</g>
<g>
</g>
<g>
</g>
<g>
</g>
<g>
</g>
<g>
</g>
<g>
</g>
<g>
</g>
<g>
</g>
<g>
</g>
</svg>
